<svg width="82" height="82" viewBox="0 0 82 82" fill="none" xmlns="http://www.w3.org/2000/svg">
<path d="M33.2131 29.877H30.9883V32.1018H33.2131V29.877Z" fill="black"/>
<path d="M33.2131 34.3262H30.9883V36.551H33.2131V34.3262Z" fill="black"/>
<path d="M33.2131 38.7754H30.9883V41.0002H33.2131V38.7754Z" fill="black"/>
<path d="M33.2131 43.2246H30.9883V45.4494H33.2131V43.2246Z" fill="black"/>
<path d="M37.6623 29.877H35.4375V32.1018H37.6623V29.877Z" fill="black"/>
<path d="M37.6623 34.3262H35.4375V36.551H37.6623V34.3262Z" fill="black"/>
<path d="M37.6623 38.7754H35.4375V41.0002H37.6623V38.7754Z" fill="black"/>
<path d="M37.6623 43.2246H35.4375V45.4494H37.6623V43.2246Z" fill="black"/>
<path d="M42.1115 29.877H39.8867V32.1018H42.1115V29.877Z" fill="black"/>
<path d="M42.1115 34.3262H39.8867V36.551H42.1115V34.3262Z" fill="black"/>
<path d="M42.1115 38.7754H39.8867V41.0002H42.1115V38.7754Z" fill="black"/>
<path d="M42.1115 43.2246H39.8867V45.4494H42.1115V43.2246Z" fill="black"/>
<path d="M46.5627 29.877H44.3379V32.1018H46.5627V29.877Z" fill="black"/>
<path d="M37.6623 25.4258H35.4375V27.6506H37.6623V25.4258Z" fill="black"/>
<path d="M42.1115 25.4258H39.8867V27.6506H42.1115V25.4258Z" fill="black"/>
<path d="M46.5627 25.4258H44.3379V27.6506H46.5627V25.4258Z" fill="black"/>
<path d="M46.5627 34.3262H44.3379V36.551H46.5627V34.3262Z" fill="black"/>
<path d="M46.5627 38.7754H44.3379V41.0002H46.5627V38.7754Z" fill="black"/>
<path d="M46.5627 43.2246H44.3379V45.4494H46.5627V43.2246Z" fill="black"/>
<path d="M51.0119 29.877H48.7871V32.1018H51.0119V29.877Z" fill="black"/>
<path d="M51.0119 34.3262H48.7871V36.551H51.0119V34.3262Z" fill="black"/>
<path d="M51.0119 38.7754H48.7871V41.0002H51.0119V38.7754Z" fill="black"/>
<path d="M51.0119 43.2246H48.7871V45.4494H51.0119V43.2246Z" fill="black"/>
<path d="M73.26 24.313C73.2596 24.313 73.2592 24.313 73.2587 24.313H56.5727V8.73936C56.5731 8.12531 56.0756 7.62737 55.4615 7.62695C55.4611 7.62695 55.4607 7.62695 55.4603 7.62695H26.5378C25.9238 7.62654 25.4258 8.12406 25.4254 8.73811C25.4254 8.73852 25.4254 8.73894 25.4254 8.73936V24.313H8.73936C8.12531 24.3126 7.62737 24.8101 7.62695 25.4242C7.62695 25.4246 7.62695 25.425 7.62695 25.4254V65.4719C7.62654 66.086 8.12406 66.5839 8.73811 66.5843C8.73852 66.5843 8.73894 66.5843 8.73936 66.5843H11.0647C11.0002 66.9517 10.9665 67.3238 10.9642 67.6967V73.2587C10.9637 73.8728 11.4613 74.3707 12.0753 74.3711C12.0757 74.3711 12.0761 74.3711 12.0766 74.3711H69.9215C70.5356 74.3716 71.0335 73.874 71.0339 73.26C71.0339 73.2596 71.0339 73.2592 71.0339 73.2587V67.6967C71.0317 67.3238 70.9981 66.9517 70.9334 66.5843H73.2587C73.8728 66.5847 74.3707 66.0872 74.3711 65.4732C74.3711 65.4728 74.3711 65.4723 74.3711 65.4719V25.4254C74.3716 24.8114 73.874 24.3134 73.26 24.313ZM55.4603 55.4603C55.4603 56.6891 54.4643 57.6851 53.2355 57.6851C52.0067 57.6851 51.0107 56.6891 51.0107 55.4603C51.0107 54.2315 52.0067 53.2355 53.2355 53.2355C54.4636 53.237 55.4588 54.2322 55.4603 55.4603ZM28.7626 53.2355C29.9914 53.2355 30.9874 54.2315 30.9874 55.4603C30.9874 56.6891 29.9914 57.6851 28.7626 57.6851C27.5338 57.6851 26.5378 56.6891 26.5378 55.4603C26.5393 54.2322 27.5345 53.237 28.7626 53.2355ZM22.0882 72.1463H13.189V67.6967C13.189 65.2393 15.1811 63.2471 17.6386 63.2471C20.096 63.2471 22.0882 65.2393 22.0882 67.6967V72.1463ZM15.4138 58.7975C15.4138 57.5687 16.4098 56.5727 17.6386 56.5727C18.8674 56.5727 19.8634 57.5687 19.8634 58.7975C19.8634 60.0263 18.8674 61.0223 17.6386 61.0223C16.4105 61.0208 15.4153 60.0256 15.4138 58.7975ZM22.2567 62.8891C21.8372 62.4844 21.3668 62.1362 20.8573 61.8533C22.554 60.0757 22.4885 57.259 20.7109 55.5622C18.9333 53.8654 16.1167 53.931 14.4198 55.7086C12.7786 57.428 12.7786 60.1338 14.4198 61.8531C13.3581 62.4424 12.4759 63.3086 11.8672 64.3594H9.85176V26.5378H25.4254V52.548C23.8978 54.2621 23.9494 56.864 25.5439 58.5161C23.8753 59.4389 22.6796 61.0297 22.2567 62.8891ZM33.2122 72.1463H24.313V64.3595C24.313 61.9021 26.3052 59.9099 28.7626 59.9099C31.2201 59.9099 33.2122 61.9021 33.2122 64.3595V72.1463ZM46.5611 72.1463H35.437V64.3595C35.437 61.2878 37.9273 58.7975 40.999 58.7975C44.0708 58.7975 46.5611 61.2878 46.5611 64.3595V72.1463ZM37.6618 53.2355C37.6618 51.3924 39.1559 49.8983 40.999 49.8983C42.8422 49.8983 44.3363 51.3924 44.3363 53.2355C44.3363 55.0786 42.8422 56.5727 40.999 56.5727C39.1568 56.5707 37.6638 55.0778 37.6618 53.2355ZM47.7739 60.5349C47.029 59.2217 45.9207 58.1517 44.5822 57.4536C46.9318 55.4746 47.2321 51.9657 45.2533 49.6161C43.2743 47.2666 39.7654 46.9663 37.4159 48.9451C35.0663 50.924 34.766 54.433 36.7448 56.7825C36.9489 57.0249 37.1734 57.2493 37.4159 57.4536C36.0774 58.1517 34.9691 59.2217 34.2242 60.5349C33.6394 59.7006 32.8724 59.0102 31.9814 58.5161C33.6868 56.7714 33.6551 53.9744 31.9103 52.2689C30.7869 51.1707 29.1649 50.7519 27.6502 51.1686V9.85176H54.3479V51.1686C53.9854 51.0687 53.6115 51.0155 53.2355 51.0107C50.7846 51.0041 48.7924 52.9857 48.7859 55.4368C48.7828 56.5837 49.224 57.6873 50.0167 58.5161C49.1257 59.0102 48.3587 59.7006 47.7739 60.5349ZM57.6851 67.6967V72.1463H48.7859V64.3595C48.7859 61.9021 50.778 59.9099 53.2355 59.9099C55.6929 59.9099 57.6851 61.9021 57.6851 64.3595V67.6967ZM68.8091 72.1463H59.9099V67.6967C59.9099 65.2393 61.9021 63.2471 64.3595 63.2471C66.817 63.2471 68.8091 65.2393 68.8091 67.6967V72.1463ZM62.1347 58.7975C62.1347 57.5687 63.1307 56.5727 64.3595 56.5727C65.5883 56.5727 66.5843 57.5687 66.5843 58.7975C66.5843 60.0263 65.5883 61.0223 64.3595 61.0223C63.1314 61.0208 62.1362 60.0256 62.1347 58.7975ZM72.1463 64.3595H70.1309C69.5222 63.3087 68.64 62.4426 67.5783 61.8533C69.2749 60.0757 69.2095 57.259 67.4318 55.5622C65.6542 53.8655 62.8376 53.931 61.1408 55.7086C59.4996 57.428 59.4996 60.1338 61.1408 61.8531C60.6313 62.1361 60.1607 62.4843 59.7414 62.8889C59.3187 61.0295 58.1228 59.4388 56.4542 58.5159C58.0487 56.8639 58.1004 54.262 56.5728 52.5479V26.5378H72.1465V64.3595H72.1463Z" fill="black"/>
<path d="M62.135 33.2129H59.9102V51.0113H62.135V33.2129Z" fill="black"/>
<path d="M68.8107 33.2129H66.5859V51.0113H68.8107V33.2129Z" fill="black"/>
<path d="M15.4143 33.2129H13.1895V51.0113H15.4143V33.2129Z" fill="black"/>
<path d="M22.09 33.2129H19.8652V51.0113H22.09V33.2129Z" fill="black"/>
<path d="M47.6754 12.0781C47.675 12.0781 47.6745 12.0781 47.6741 12.0781H34.3253C33.7112 12.0777 33.2133 12.5752 33.2129 13.1893C33.2129 13.1897 33.2129 13.1901 33.2129 13.1905V22.0898C33.2125 22.7038 33.71 23.2017 34.324 23.2022C34.3245 23.2022 34.3249 23.2022 34.3253 23.2022H47.6741C48.2882 23.2026 48.7861 22.7051 48.7865 22.091C48.7865 22.0906 48.7865 22.0902 48.7865 22.0898V13.1905C48.787 12.5765 48.2894 12.0785 47.6754 12.0781ZM46.5617 20.9774H35.4377V14.3029H46.5617V20.9774Z" fill="black"/>
</svg>
