<svg width="82" height="82" viewBox="0 0 82 82" fill="none" xmlns="http://www.w3.org/2000/svg">
<path d="M79.4772 45.2208L66.5651 26.5041C66.292 26.1084 65.7501 26.0083 65.3535 26.2808L58.4369 31.0307C58.2466 31.1611 58.1158 31.3626 58.0737 31.5887C58.0316 31.8163 58.0824 32.0497 58.2132 32.2395L59.3928 33.9484C56.743 34.3383 54.3968 34.034 52.405 33.0367C51.0104 32.3395 49.5329 32.1989 47.7533 32.5946C44.3873 33.344 41.5689 34.134 38.7869 35.1123C35.9569 35.2689 32.3308 34.8833 30.0791 33.4078L31.0263 32.0337C31.157 31.8438 31.2079 31.609 31.1657 31.3829C31.1236 31.1568 30.9928 30.9553 30.8025 30.8249L23.886 26.075C23.4894 25.8025 22.946 25.9025 22.6744 26.2982L9.76224 45.0179C9.48912 45.4136 9.58936 45.9542 9.98596 46.2267L16.9025 50.9766C17.0493 51.0766 17.2222 51.1302 17.3965 51.1302C17.4488 51.1302 17.5025 51.1259 17.5548 51.1157C17.7815 51.0737 17.9834 50.9432 18.1141 50.7534L18.8231 49.7257C19.6686 51.1215 20.8076 52.4681 22.2705 53.8059L21.7751 54.5161C20.6637 56.1091 21.0589 58.3064 22.6555 59.4153C23.1785 59.7776 23.777 59.9878 24.3973 60.0342L24.3537 60.0965C23.2424 61.6895 23.6375 63.8868 25.2341 64.9957C25.8472 65.4218 26.5489 65.6247 27.2433 65.6247C28.1716 65.6247 29.0868 65.2595 29.7624 64.5739C30.0151 65.1464 30.4219 65.6595 30.974 66.0436C31.5696 66.4567 32.264 66.6727 32.9773 66.6727C33.188 66.6727 33.4001 66.6538 33.6107 66.6161C33.9899 66.548 34.3458 66.4205 34.6741 66.2422C34.8993 66.9626 35.3555 67.6177 36.0237 68.0815C36.6368 68.5062 37.3385 68.7106 38.0329 68.7106C39.1501 68.7106 40.2484 68.1845 40.9341 67.2032L41.4483 66.4654L46.3267 69.5295C46.9587 69.9267 47.6632 70.1166 48.3606 70.1166C49.6346 70.1166 50.8811 69.4846 51.6075 68.3323C52.0244 67.6728 52.2118 66.9336 52.1929 66.206C52.6971 66.4437 53.2418 66.5654 53.7968 66.5654C54.0786 66.5654 54.3619 66.535 54.6437 66.4712C55.6505 66.2465 56.5062 65.645 57.0539 64.7782C57.4868 64.0927 57.6844 63.3042 57.6321 62.507C57.9735 62.6055 58.3279 62.6562 58.6868 62.6562C58.973 62.6562 59.2621 62.6244 59.5483 62.5591C60.5478 62.333 61.3976 61.7329 61.941 60.872C62.4625 60.0458 62.6426 59.0718 62.4567 58.1122C62.4959 58.1137 62.5337 58.1166 62.5729 58.1166C63.8455 58.1166 65.0934 57.4846 65.8198 56.3323C66.6174 55.0684 66.5782 53.5146 65.8518 52.3159C67.46 51.8202 68.9723 50.8983 70.2173 49.6474L71.1224 50.9592C71.2531 51.1491 71.4551 51.2795 71.6817 51.3215C71.734 51.3317 71.7877 51.336 71.84 51.336C72.0158 51.336 72.1873 51.2839 72.334 51.1824L79.2506 46.4325C79.6501 46.1586 79.7503 45.6165 79.4772 45.2208ZM17.1728 49.0503L11.6915 45.286L23.6143 28.0013L29.0955 31.7656L17.1728 49.0503ZM26.1363 57.5426C25.8661 57.931 25.4578 58.1905 24.9857 58.2746C24.515 58.3586 24.0414 58.2572 23.6521 57.9861C23.2627 57.7165 23.0027 57.3092 22.9184 56.8382C22.8342 56.3671 22.9358 55.896 23.2075 55.5076L25.7687 51.8361C26.0389 51.4476 26.4472 51.1882 26.9193 51.1041C27.39 51.0201 27.8636 51.1215 28.2529 51.3926C29.0607 51.9535 29.2597 53.0638 28.6989 53.8697L26.1363 57.5426ZM26.2322 63.5665C25.4244 63.0056 25.2254 61.8938 25.7862 61.0879L30.1285 54.8626C30.1285 54.8626 30.1285 54.8626 30.1285 54.8611L31.9081 52.3086C32.2538 51.8115 32.8102 51.5462 33.3754 51.5462C33.7269 51.5462 34.0829 51.6491 34.3923 51.8651C34.7816 52.1347 35.0417 52.542 35.1259 53.0131C35.2102 53.4841 35.1085 53.9552 34.8368 54.3436L28.7149 63.1215C28.1527 63.9289 27.0399 64.1274 26.2322 63.5665ZM33.3056 64.9029C32.8349 64.987 32.3613 64.8855 31.972 64.6145C31.1643 64.0535 30.9652 62.9418 31.526 62.1359L34.8877 57.3179C35.4499 56.512 36.5642 56.3135 37.3719 56.8729C38.1796 57.4339 38.3787 58.5456 37.8179 59.3515L37.1293 60.3386C37.1293 60.34 37.1278 60.34 37.1278 60.3415L34.4577 64.1709C34.186 64.5579 33.7778 64.8188 33.3056 64.9029ZM39.506 66.2074C38.9438 67.0133 37.8295 67.2133 37.0218 66.6524C36.2141 66.0914 36.015 64.9797 36.5758 64.1738L38.5559 61.3343C39.1181 60.5285 40.2324 60.3284 41.0401 60.8894C41.8479 61.4503 42.0469 62.562 41.4861 63.3679L39.506 66.2074ZM64.3467 55.4046C63.7337 56.3758 62.4422 56.6686 61.4688 56.0569L51.3576 49.704C50.9508 49.4474 50.4119 49.5706 50.1562 49.9765C49.899 50.3823 50.0225 50.92 50.4293 51.1752L59.8141 57.0701L59.8156 57.0715C60.2848 57.3658 60.6117 57.8281 60.7352 58.3731C60.8586 58.9181 60.7642 59.4747 60.4693 59.9429C60.1744 60.411 59.711 60.7357 59.1647 60.8604C58.6185 60.9836 58.0606 60.8894 57.5914 60.5951L55.8597 59.508C55.8583 59.508 55.8583 59.5066 55.8568 59.5066C55.8568 59.5066 55.8553 59.5066 55.8553 59.5051L48.3039 54.7611C47.8971 54.5045 47.3582 54.6277 47.1025 55.0336C46.8453 55.4394 46.9688 55.9772 47.3756 56.2323L54.9299 60.9778C55.3992 61.272 55.7246 61.7344 55.8495 62.2794C55.973 62.8244 55.8786 63.381 55.5837 63.8491C55.2859 64.3217 54.8181 64.6492 54.2675 64.7724C53.7242 64.8942 53.1721 64.7985 52.7101 64.5057L46.3587 60.4603C45.9533 60.2023 45.4144 60.3212 45.1543 60.7256C44.8957 61.13 45.0149 61.6677 45.4202 61.9272L49.4908 64.5202L49.4821 64.5347C50.4554 65.1464 50.7489 66.4335 50.1358 67.4061C49.5228 68.3772 48.2313 68.67 47.2579 68.0584L42.4478 65.0362L42.9171 64.3637C43.4532 63.594 43.658 62.6606 43.4909 61.7329C43.3239 60.8053 42.8081 59.9994 42.0367 59.4646C41.3699 59.0022 40.597 58.8022 39.8416 58.8413C40.0246 57.5658 39.4973 56.2337 38.367 55.4481C37.8281 55.0742 37.2077 54.8626 36.5656 54.8263C37.2833 53.3029 36.8184 51.4346 35.3874 50.4417C33.7909 49.3329 31.5885 49.7272 30.4771 51.3201L30.4321 51.3853C30.1735 50.82 29.7711 50.3301 29.2481 49.9663C28.4767 49.4315 27.5411 49.2271 26.6113 49.3938C25.6816 49.5605 24.8738 50.075 24.3378 50.8447L23.2758 52.3666C21.778 50.9708 20.6754 49.575 19.9243 48.1328L29.0897 34.8456C30.9275 36.0646 33.2998 36.5748 35.3061 36.7734C34.7715 37.1865 34.3255 37.6605 33.9434 38.2171L30.7967 42.7959C30.6006 43.0829 30.5323 43.4278 30.605 43.7656C30.6776 44.1047 30.8824 44.3917 31.1803 44.5715C35.1579 46.9804 39.1326 46.0803 42.9955 41.8943C43.0333 41.8537 43.058 41.8436 43.1132 41.8479L47.1112 42.1175L63.693 52.5347C64.6663 53.145 64.9598 54.4335 64.3467 55.4046ZM64.3467 50.8896L47.8536 40.5289C47.7315 40.4521 47.5921 40.4072 47.4482 40.397L43.2309 40.1129C42.6483 40.0738 42.1094 40.2883 41.7127 40.7174C38.598 44.0917 35.5908 44.9527 32.5342 43.3409L35.3802 39.1998C36.0092 38.2837 36.8605 37.6764 38.2276 37.1677C41.3205 36.0168 44.3757 35.1312 48.131 34.2949C49.517 33.9876 50.5935 34.0789 51.622 34.5934C54.1542 35.8603 57.1323 36.1719 60.4795 35.5269L69.2105 48.1835C67.8769 49.6228 66.1467 50.5881 64.3467 50.8896ZM72.0667 49.2546L60.1439 31.9699L65.6251 28.2057L77.5479 45.4904L72.0667 49.2546ZM42.1733 27.9897C42.8285 28.3651 43.5055 28.7536 44.1563 29.1609C44.2987 29.2493 44.4599 29.2942 44.6197 29.2942C44.7795 29.2942 44.9422 29.2493 45.0831 29.1609C45.734 28.7522 46.411 28.3651 47.0662 27.9897C50.1765 26.2069 53.3944 24.3647 54.6089 19.8888C54.6292 19.8148 54.6394 19.738 54.6394 19.6612V8.986C54.6394 8.60914 54.3968 8.27577 54.0365 8.15836L44.8885 5.19279C44.7127 5.13626 44.5253 5.13626 44.3495 5.19279L35.2015 8.15836C34.8427 8.27432 34.5986 8.60914 34.5986 8.986V19.6612C34.5986 19.738 34.6088 19.8148 34.6291 19.8888C35.8451 24.3632 39.0629 26.2069 42.1733 27.9897ZM36.3434 9.61796L44.6197 6.93503L52.8961 9.61796V19.5438C51.8486 23.2442 49.2279 24.7459 46.1989 26.4823C45.6802 26.7795 45.1485 27.0838 44.6212 27.4042C44.0924 27.0838 43.5607 26.7795 43.0435 26.4823C40.0145 24.7459 37.3937 23.2442 36.3463 19.5438V9.61796H36.3434ZM38.5559 17.7871C38.216 17.4479 38.216 16.8971 38.5559 16.5565C38.8958 16.2173 39.4479 16.2173 39.7893 16.5565L42.8372 19.5989L49.4501 13.0024C49.7901 12.6633 50.3421 12.6633 50.6835 13.0024C51.0235 13.3416 51.0235 13.8924 50.6835 14.2316L43.4546 21.444C43.2904 21.6078 43.0696 21.6991 42.8386 21.6991C42.6076 21.6991 42.3854 21.6078 42.2227 21.444L38.5559 17.7871Z" fill="black"/>
</svg>
