<svg width="82" height="82" viewBox="0 0 82 82" fill="none" xmlns="http://www.w3.org/2000/svg">
<path fill-rule="evenodd" clip-rule="evenodd" d="M37.7091 61.4851C37.18 62.3988 37.2165 63.6318 38.0974 64.5127C38.8705 65.2859 38.8705 66.5436 38.0974 67.3168L35.8906 69.5235C35.1175 70.2967 33.8597 70.2967 33.0865 69.5235C31.515 67.9521 28.8226 69.0677 28.8226 71.2896C28.8226 72.3875 27.935 73.2716 26.8406 73.2716H23.7195C22.6252 73.2716 21.7376 72.3875 21.7376 71.2896C21.7376 69.0649 19.0464 67.9507 17.4736 69.5235C16.7 70.2971 15.445 70.2971 14.6716 69.5238L12.4627 67.3168C11.6896 66.5436 11.6896 65.2859 12.4627 64.5127C14.0342 62.9412 12.92 60.2486 10.6967 60.2486C9.60243 60.2486 8.71484 59.3611 8.71484 58.2668V55.1457C8.71484 54.0513 9.60243 53.1638 10.6967 53.1638C12.92 53.1638 14.0342 50.4712 12.4627 48.8997C11.6891 48.126 11.6891 46.8711 12.4627 46.0974L14.6714 43.8889C15.445 43.1152 16.7 43.1152 17.4736 43.8889C17.7103 44.1255 17.972 44.3021 18.2461 44.4231C19.7651 40.6852 23.433 38.0491 27.7158 38.0491C28.9765 38.0491 30.184 38.2777 31.299 38.6954C32.7373 34.7938 36.4886 32.0106 40.8892 32.0106C42.1815 32.0106 43.4177 32.2507 44.5559 32.6886C45.9897 28.7783 49.7455 25.9877 54.1521 25.9877C59.7948 25.9877 64.3688 30.5631 64.3688 36.2057C64.3688 36.5452 64.3127 36.8721 64.2039 37.1842C63.993 39.7769 66.8811 41.6613 69.2198 40.2177C70.2617 39.5747 71.6284 39.8981 72.2715 40.94L74.2876 44.2063C74.9308 45.2482 74.6072 46.615 73.5655 47.258C71.0721 48.7969 71.6863 52.5878 74.5364 53.2624C75.7269 53.5441 76.4661 54.7417 76.1843 55.9322L75.2985 59.6682C75.0165 60.8596 73.8218 61.597 72.6304 61.315C69.7804 60.6406 67.5331 63.7554 69.0712 66.2471C69.7163 67.2925 69.3908 68.6558 68.3489 69.2988L65.0826 71.315C64.0407 71.9582 62.676 71.638 62.0309 70.5928C60.4928 68.1009 56.7012 68.7136 56.0266 71.5638C55.7448 72.7543 54.5472 73.4934 53.3567 73.2117L49.6218 72.3278C48.4311 72.0461 47.692 70.8484 47.9737 69.6578C48.6484 66.8077 45.5335 64.5604 43.0416 66.0985C41.9964 66.7436 40.6331 66.4182 39.99 65.3762L37.9739 62.1099C37.851 61.9109 37.7634 61.7003 37.7091 61.4851ZM17.6941 46.2653C17.1337 46.055 16.5975 45.7193 16.1204 45.2421C16.0939 45.2157 16.0511 45.2157 16.0246 45.2421L13.816 47.4507C13.7895 47.4771 13.7895 47.52 13.816 47.5466C16.5916 50.3221 14.6235 55.0776 10.6967 55.0776C10.6591 55.0776 10.6286 55.1081 10.6286 55.1457V58.2668C10.6286 58.3044 10.6591 58.3349 10.6967 58.3349C14.6235 58.3349 16.5916 63.0903 13.816 65.8659C13.7891 65.8928 13.7891 65.9366 13.816 65.9635L16.0246 68.1702C16.0511 68.1967 16.0939 68.1967 16.1204 68.1702C18.8982 65.3924 23.6514 67.3604 23.6514 71.2896C23.6514 71.3273 23.6819 71.3578 23.7195 71.3578H26.8406C26.8782 71.3578 26.9088 71.3273 26.9088 71.2896C26.9088 67.3652 31.6642 65.3947 34.4398 68.1702C34.4668 68.1972 34.5105 68.1972 34.5374 68.1702L36.7442 65.9635C36.7711 65.9366 36.7711 65.8928 36.7442 65.8659C34.05 63.1717 35.8275 58.6121 39.5233 58.347C39.7276 58.1018 39.8883 57.8339 40.0064 57.5528C40.7403 55.8066 39.8596 53.559 37.7251 53.0539C36.8263 52.8412 36.1859 52.1088 36.0466 51.2504C35.8767 51.3595 35.6964 51.4637 35.506 51.5629C34.7121 51.9763 33.7327 52.3086 32.6433 52.5534C33.3396 53.7814 33.7375 55.1993 33.7375 56.7072C33.7375 61.3636 29.9375 65.1635 25.281 65.1635C20.6224 65.1635 16.8245 61.3636 16.8245 56.7072C16.8245 54.5155 17.6645 52.5139 19.0399 51.0092C18.0467 50.2628 17.4978 49.3247 17.4978 48.2671C17.4978 47.582 17.5653 46.9127 17.6941 46.2653ZM30.8073 40.5575C29.8519 40.1738 28.8085 39.9629 27.7158 39.9629C23.9785 39.9629 20.8172 42.4322 19.7753 45.8284C19.7724 45.8385 19.7693 45.8486 19.7661 45.8586C19.5354 46.6208 19.4116 47.4295 19.4116 48.2671C19.4116 49.0291 20.1022 49.537 21.0275 49.9742C23.4279 51.1087 27.5071 51.409 30.8768 50.9305C32.3244 50.7251 33.641 50.3764 34.6219 49.8655C35.1313 49.6003 35.5445 49.3011 35.7954 48.9372C35.8493 48.8112 35.91 48.6866 35.9774 48.5637C36.0045 48.4687 36.0184 48.3699 36.0184 48.2671C36.0184 47.6554 35.9526 47.0592 35.8271 46.4852C34.8266 46.2523 33.9235 45.9434 33.1765 45.5648C31.5776 44.7548 30.6712 43.5927 30.6712 42.2284C30.6712 41.6595 30.7178 41.1012 30.8073 40.5575ZM44.067 34.5541C43.0883 34.1481 42.0149 33.9244 40.8892 33.9244C36.9979 33.9244 33.7308 36.6015 32.8308 40.2144C32.8283 40.2255 32.8256 40.2364 32.8227 40.2475C32.6673 40.8823 32.585 41.5457 32.585 42.2284C32.585 42.9429 33.2039 43.4334 34.0415 43.8577C34.7137 44.1983 35.5386 44.4644 36.4511 44.6641C36.5626 44.6886 36.6756 44.712 36.7896 44.7342C36.7903 44.7344 36.7909 44.7345 36.7916 44.7347C37.428 44.8595 38.1008 44.9527 38.7915 45.0146C38.7921 45.0148 38.7926 45.0148 38.7933 45.0149C41.7703 45.2819 45.0856 44.981 47.2598 44.0759C47.8868 43.815 48.4116 43.5089 48.7725 43.1351C49.0284 42.8701 49.1919 42.5734 49.1919 42.2284C49.1919 41.6133 49.1252 41.0137 48.9983 40.4366C48.0059 40.2001 47.1116 39.8903 46.3774 39.5102C44.8161 38.702 43.9343 37.5528 43.9343 36.2057C43.9343 35.6433 43.9797 35.0918 44.067 34.5541ZM62.403 36.5513C62.4369 36.4421 62.455 36.3271 62.455 36.2057C62.455 31.62 58.7378 27.9015 54.1521 27.9015C49.5664 27.9015 45.8481 31.6199 45.8481 36.2057C45.8481 36.9058 46.4459 37.3906 47.2573 37.8107C47.9799 38.1849 48.8794 38.4737 49.8786 38.6809C49.9391 38.6874 49.9984 38.6994 50.0559 38.7168C51.3218 38.9643 52.7373 39.0843 54.1515 39.0843C56.7613 39.0843 59.3754 38.6755 61.0457 37.8107C61.6506 37.4975 62.1369 37.1483 62.3452 36.7007C62.3604 36.6488 62.3798 36.5989 62.403 36.5513ZM38.8235 47.0898L37.9407 50.8267C37.9022 50.9896 38.003 51.153 38.166 51.1915C41.5363 51.9893 42.9297 55.537 41.7706 58.2944C41.5135 58.9061 41.1317 59.4794 40.6188 59.9757C40.3496 60.2359 40.0444 60.475 39.7014 60.6868C39.5581 60.7751 39.5144 60.9621 39.6024 61.1047L41.6186 64.3711C41.7066 64.5138 41.8934 64.5584 42.0365 64.4699C45.977 62.0376 50.9029 65.5914 49.8361 70.0986C49.7974 70.2621 49.899 70.4267 50.0625 70.4654L53.7974 71.3493C53.961 71.3881 54.1255 71.2866 54.1642 71.1229C55.231 66.6157 61.2271 65.647 63.6594 69.5875C63.7477 69.7306 63.9346 69.7745 64.0773 69.6865L67.3437 67.6703C67.4865 67.5823 67.531 67.3955 67.4426 67.2524C65.0103 63.3118 68.5641 58.386 73.0713 59.4528C73.2342 59.4913 73.3976 59.3904 73.4361 59.2275L74.3221 55.4915C74.3608 55.3279 74.2592 55.1634 74.0956 55.1246C69.5883 54.058 68.6174 48.0631 72.5602 45.6295C72.7029 45.5413 72.7472 45.3542 72.6591 45.2115L70.643 41.9452C70.5549 41.8025 70.3678 41.7582 70.2251 41.8462C67.1971 43.7153 63.5933 42.0495 62.5653 39.1349C62.3669 39.267 62.1535 39.3922 61.9257 39.5102C60.0399 40.4866 57.0979 40.9981 54.1515 40.9981C53.086 40.9981 52.0211 40.9313 51.0065 40.7996C51.0719 41.2666 51.1057 41.7435 51.1057 42.2284C51.1057 43.4262 50.4197 44.46 49.1744 45.2415C46.9436 46.6415 42.7147 47.2399 38.905 46.9447C38.866 46.9832 38.837 47.0327 38.8235 47.0898ZM30.5933 52.8966C27.2309 53.2859 23.3602 52.9594 20.7921 51.9548C19.529 53.1489 18.7383 54.8384 18.7383 56.7072C18.7383 60.3097 21.6768 63.2497 25.281 63.2497C28.8837 63.2497 31.8237 60.3097 31.8237 56.7072C31.8237 55.2871 31.367 53.9706 30.5933 52.8966ZM47.4837 58.4968C44.5436 53.7334 46.0321 47.4518 50.7933 44.5129C55.5566 41.5728 61.837 43.0591 64.7771 47.8226C67.716 52.5838 66.2309 58.8662 61.4675 61.8065C56.7062 64.7452 50.4224 63.2581 47.4837 58.4968ZM49.1122 57.4916C51.4976 61.356 56.5978 62.5632 60.4623 60.1778C64.3286 57.7915 65.534 52.6922 63.1486 48.8277C60.7622 44.9616 55.6647 43.7551 51.7984 46.1414C47.934 48.5268 46.7258 53.6254 49.1122 57.4916ZM22.4781 32.2592C22.4781 29.3676 24.8224 27.023 27.7158 27.023C30.6076 27.023 32.952 29.3675 32.952 32.2592C32.952 35.1527 30.6075 37.497 27.7158 37.497C24.8224 37.497 22.4781 35.1526 22.4781 32.2592ZM24.3919 32.2592C24.3919 34.0955 25.8796 35.5832 27.7158 35.5832C29.5508 35.5832 31.0382 34.0954 31.0382 32.2592C31.0382 30.4244 29.5507 28.9368 27.7158 28.9368C25.8797 28.9368 24.3919 30.4243 24.3919 32.2592ZM35.6515 26.2207C35.6515 23.3291 37.9958 20.9844 40.8892 20.9844C43.781 20.9844 46.1254 23.3289 46.1254 26.2207C46.1254 29.1142 43.7809 31.4584 40.8892 31.4584C37.9958 31.4584 35.6515 29.1141 35.6515 26.2207ZM37.5653 26.2207C37.5653 28.057 39.053 29.5447 40.8892 29.5447C42.7242 29.5447 44.2116 28.0568 44.2116 26.2207C44.2116 24.3859 42.7241 22.8982 40.8892 22.8982C39.0532 22.8982 37.5653 24.3858 37.5653 26.2207ZM48.9145 20.198C48.9145 17.3063 51.2588 14.9617 54.1521 14.9617C57.044 14.9617 59.3884 17.3061 59.3884 20.198C59.3884 23.0914 57.0439 25.4356 54.1521 25.4356C51.2588 25.4356 48.9145 23.0912 48.9145 20.198ZM50.8283 20.198C50.8283 22.0341 52.316 23.5218 54.1521 23.5218C55.9872 23.5218 57.4746 22.034 57.4746 20.198C57.4746 18.3631 55.987 16.8755 54.1521 16.8755C52.3161 16.8755 50.8283 18.3629 50.8283 20.198ZM46.3779 7.65598H45.6732C45.1452 7.65598 44.7163 7.22715 44.7163 6.69908C44.7163 6.17088 45.1452 5.74219 45.6732 5.74219H49.9272C50.2624 5.74232 50.58 5.91826 50.7545 6.21804C50.7549 6.21886 50.7554 6.21968 50.7558 6.22063C50.9299 6.52178 50.9238 6.88622 50.7558 7.17753L48.6289 10.8616C48.3648 11.3188 47.7791 11.4758 47.3218 11.2118C46.8644 10.9477 46.7075 10.3619 46.9715 9.90468L47.3019 9.33245L13.81 28.8072C13.3536 29.0726 12.7673 28.9175 12.5018 28.4609C12.2364 28.0043 12.3915 27.4182 12.8481 27.1527L46.3779 7.65598Z" fill="black"/>
</svg>
