<svg width="82" height="82" viewBox="0 0 82 82" fill="none" xmlns="http://www.w3.org/2000/svg">
<path d="M41.2935 62.8441C41.2935 62.3811 40.9167 61.9966 40.4405 61.9966H36.0915V72.461H41.2935V62.8441ZM57.4544 48.8575C57.4624 47.9186 58.2814 47.2364 59.1717 47.3335H59.1718C63.7481 47.834 67.3067 51.9442 66.8973 56.7325C66.5372 60.9442 63.1478 64.3151 58.9453 64.6585C54.1558 65.0498 50.0435 61.4619 49.5785 56.854C49.4871 55.9479 50.1865 55.142 51.1115 55.142H57.4016L57.4544 48.8575ZM59.0753 55.2942C59.0681 56.1483 58.3753 56.8278 57.534 56.8277V56.8278H51.2611C51.7057 60.4663 54.9923 63.2901 58.8098 62.9782C62.2052 62.7007 64.9392 59.9717 65.2286 56.588C65.553 52.7925 62.765 49.4971 59.1281 49.0259L59.0753 55.2942ZM19.8236 55.5128V53.5803C19.8236 53.1148 20.1986 52.7374 20.6611 52.7374C21.1236 52.7374 21.4986 53.1148 21.4986 53.5803V55.5128C21.4986 55.9782 21.1236 56.3556 20.6611 56.3556C20.1986 56.3556 19.8237 55.9782 19.8236 55.5128ZM27.1201 55.5128V53.5803C27.1201 53.1148 27.495 52.7374 27.9575 52.7374C28.4201 52.7374 28.795 53.1148 28.795 53.5803V55.5128C28.795 55.9782 28.42 56.3556 27.9575 56.3556C27.495 56.3556 27.1201 55.9782 27.1201 55.5128ZM34.4166 55.5128V53.5803C34.4166 53.1148 34.7915 52.7374 35.2541 52.7374C35.7166 52.7374 36.0915 53.1148 36.0915 53.5803V55.5128C36.0915 55.9782 35.7166 56.3556 35.2541 56.3556C34.7916 56.3556 34.4166 55.9782 34.4166 55.5128ZM41.713 55.5128V53.5803C41.713 53.1148 42.088 52.7374 42.5505 52.7374C43.013 52.7374 43.388 53.1148 43.388 53.5803V55.5128C43.3879 55.9782 43.013 56.3556 42.5505 56.3556C42.088 56.3556 41.713 55.9782 41.713 55.5128ZM51.3511 52.5625C51.3511 50.4744 53.0424 48.7909 55.1172 48.7909C55.5797 48.7909 55.9547 49.1683 55.9547 49.6338C55.9547 50.0993 55.5797 50.4766 55.1172 50.4767C53.9572 50.4767 53.026 51.4156 53.026 52.5625C53.026 53.0279 52.6511 53.4053 52.1886 53.4053C51.7261 53.4053 51.3511 53.0279 51.3511 52.5625ZM19.8236 49.2476V47.3151C19.8236 46.8496 20.1986 46.4722 20.6611 46.4722C21.1236 46.4722 21.4986 46.8496 21.4986 47.3151V49.2476C21.4986 49.713 21.1236 50.0904 20.6611 50.0904C20.1986 50.0904 19.8237 49.7131 19.8236 49.2476ZM27.1201 49.2476V47.3151C27.1201 46.8496 27.495 46.4722 27.9575 46.4722C28.4201 46.4722 28.795 46.8496 28.795 47.3151V49.2476C28.795 49.7131 28.4201 50.0904 27.9575 50.0904C27.495 50.0904 27.1201 49.713 27.1201 49.2476ZM34.4166 49.2476V47.3151C34.4166 46.8496 34.7915 46.4722 35.2541 46.4722C35.7166 46.4722 36.0915 46.8496 36.0915 47.3151V49.2476C36.0915 49.713 35.7166 50.0904 35.2541 50.0904C34.7915 50.0904 34.4166 49.7131 34.4166 49.2476ZM41.713 49.2476V47.3151C41.713 46.8496 42.088 46.4722 42.5505 46.4722C43.013 46.4722 43.388 46.8496 43.388 47.3151V49.2476C43.3879 49.7131 43.013 50.0904 42.5505 50.0904C42.088 50.0904 41.713 49.713 41.713 49.2476ZM48.9367 44.9899L52.2729 44.852C52.3271 44.8497 52.3803 44.8528 52.4321 44.8606C52.5398 44.8039 52.6485 44.7489 52.7581 44.6952V38.8037H48.9367V44.9899ZM19.8236 42.9824V41.0499C19.8236 40.5844 20.1986 40.207 20.6611 40.207C21.1236 40.207 21.4986 40.5844 21.4986 41.0499V42.9824C21.4986 43.4479 21.1236 43.8252 20.6611 43.8252C20.1986 43.8252 19.8237 43.4479 19.8236 42.9824ZM27.1201 42.9824V41.0499C27.1201 40.5844 27.495 40.207 27.9575 40.207C28.4201 40.207 28.795 40.5844 28.795 41.0499V42.9824C28.795 43.4479 28.4201 43.8252 27.9575 43.8252C27.495 43.8252 27.1201 43.4479 27.1201 42.9824ZM34.4166 42.9824V41.0499C34.4166 40.5844 34.7915 40.207 35.2541 40.207C35.7166 40.207 36.0915 40.5844 36.0915 41.0499V42.9824C36.0915 43.4479 35.7166 43.8252 35.2541 43.8252C34.7915 43.8252 34.4166 43.4479 34.4166 42.9824ZM43.4404 37.5125H44.2345C44.9419 37.5125 45.5803 37.9493 45.8353 38.6168L47.2617 42.3501V34.0093H43.4404V37.5125ZM19.8236 36.7172V34.7846C19.8236 34.3191 20.1986 33.9417 20.6611 33.9417C21.1236 33.9417 21.4986 34.3191 21.4986 34.7846V36.7172C21.4986 37.1827 21.1236 37.56 20.6611 37.5601C20.1986 37.5601 19.8236 37.1827 19.8236 36.7172ZM27.1201 36.7172V34.7846C27.1201 34.3191 27.495 33.9417 27.9575 33.9417C28.4201 33.9417 28.795 34.3191 28.795 34.7846V36.7172C28.795 37.1827 28.4201 37.5601 27.9575 37.5601C27.495 37.56 27.1201 37.1827 27.1201 36.7172ZM37.9441 34.8595C37.9441 34.8754 37.9436 34.8911 37.9427 34.9067L39.1559 37.491L39.1612 37.499C39.168 37.5066 39.1789 37.5125 39.1925 37.5125H41.7655V34.0093H37.9441V34.8595ZM48.9367 37.118H52.7581V34.0093H48.9367V37.118ZM48.9367 32.3235H52.7581V29.215H48.9367V32.3235ZM43.4404 32.3235H47.2617V29.215H43.4404V32.3235ZM37.9441 32.3235H41.7655V29.215H37.9441V32.3235ZM32.4477 30.0259L34.8872 30.3079H34.8871C35.4568 30.3736 35.9563 30.7209 36.2175 31.2335L36.242 31.2836V31.2837L36.2692 31.3415V24.4207H32.4477V30.0259ZM26.9515 26.0384L28.3417 29.532C28.3459 29.5426 28.3573 29.5532 28.374 29.5551L30.7728 29.8323V24.4207H26.9515V26.0384ZM14.2 28.6164V23.3135C14.2 22.244 15.0655 21.3865 16.1215 21.3865H23.9388C24.4664 21.3865 24.9559 21.6295 25.2765 22.0306V19.6262H23.2693C22.8068 19.6262 22.4318 19.2488 22.4318 18.7833C22.4318 18.3178 22.8068 17.9405 23.2693 17.9405H25.2765V14.8319H23.2693C22.8068 14.8319 22.4318 14.4545 22.4318 13.989C22.4318 13.5235 22.8068 13.1461 23.2693 13.1461H25.2765V10.0376H23.2693C22.8068 10.0376 22.4318 9.6602 22.4318 9.19469C22.4318 8.72918 22.8068 8.35181 23.2693 8.35181H25.2765V5.6671C25.2765 5.20159 25.6515 4.82422 26.114 4.82422C26.5765 4.82425 26.9515 5.20161 26.9515 5.6671V8.35181H30.7728V5.6671C30.7728 5.20159 31.1477 4.82422 31.6103 4.82422C32.0728 4.82425 32.4477 5.20161 32.4477 5.6671V8.35181H36.2692V5.6671C36.2692 5.20159 36.6441 4.82422 37.1067 4.82422C37.5692 4.82423 37.9441 5.2016 37.9441 5.6671V8.35181H41.7655V5.6671C41.7655 5.20159 42.1404 4.82422 42.6029 4.82422C43.0654 4.82424 43.4404 5.2016 43.4404 5.6671V8.35181H47.2617V5.6671C47.2617 5.20159 47.6367 4.82422 48.0992 4.82422C48.5617 4.82424 48.9367 5.2016 48.9367 5.6671V8.35181H50.7061C51.1686 8.35181 51.5436 8.72918 51.5436 9.19469C51.5436 9.6602 51.1686 10.0376 50.7061 10.0376H48.9367V13.1461H52.7581V11.7566C52.7581 11.2911 53.1331 10.9137 53.5956 10.9137C54.0581 10.9137 54.4331 11.2911 54.4331 11.7566V13.1461H56.4403C56.9028 13.1461 57.2778 13.5235 57.2778 13.989C57.2778 14.4545 56.9028 14.8319 56.4403 14.8319H54.4331V17.9405H56.4403C56.9028 17.9405 57.2778 18.3178 57.2778 18.7833C57.2778 19.2488 56.9028 19.6262 56.4403 19.6262H54.4331V22.7349H56.4403C56.9028 22.7349 57.2778 23.1123 57.2778 23.5778C57.2778 24.0433 56.9028 24.4206 56.4403 24.4207H54.4331V27.5292H56.4403C56.9028 27.5292 57.2778 27.9066 57.2778 28.3721C57.2778 28.8376 56.9028 29.215 56.4403 29.215H54.4331V32.3235H56.4403C56.9028 32.3236 57.2778 32.7009 57.2778 33.1664C57.2778 33.6319 56.9028 34.0093 56.4403 34.0093H54.4331V37.118H56.4403C56.9028 37.118 57.2778 37.4954 57.2778 37.9609C57.2778 38.4264 56.9028 38.8037 56.4403 38.8037H54.4331V44.0208C55.643 43.6328 56.9325 43.4231 58.2706 43.4231C62.9696 43.4231 67.064 46.007 69.2172 49.8292C69.4453 50.2342 69.304 50.7486 68.9017 50.9782C68.4993 51.2078 67.9882 51.0655 67.7601 50.6606C65.8937 47.3474 62.3451 45.1089 58.2706 45.1089C52.254 45.1089 47.3859 49.9849 47.3859 55.9882C47.3859 61.9915 52.254 66.8676 58.2706 66.8676C64.2873 66.8676 69.1555 61.9915 69.1555 55.9882C69.1555 55.3491 69.0971 54.7221 68.9902 54.1089C68.9103 53.6504 69.2148 53.2136 69.6704 53.1332C70.1259 53.0527 70.5601 53.3592 70.64 53.8177C70.7626 54.5208 70.8304 55.2454 70.8304 55.9882C70.8304 62.9327 65.2022 68.5534 58.2706 68.5534C57.6031 68.5534 56.9476 68.5009 56.3081 68.4005V72.461H76.3337C76.7962 72.461 77.1711 72.8384 77.1711 73.3039C77.1711 73.7694 76.7962 74.1468 76.3337 74.1468H8.69685C8.23433 74.1468 7.85938 73.7694 7.85938 73.3039C7.85938 72.8384 8.23433 72.461 8.69685 72.461H14.2V32.5629C14.2 32.0974 14.575 31.72 15.0375 31.72C15.5 31.7201 15.875 32.0974 15.875 32.5629V72.461H27.5397V69.6839C27.5397 69.2184 27.9146 68.841 28.3771 68.841C28.8397 68.841 29.2146 69.2184 29.2146 69.6839V72.461H34.4166V61.9966H30.0675C29.5914 61.9966 29.2146 62.3811 29.2146 62.8441V65.7373C29.2146 66.2028 28.8397 66.5802 28.3771 66.5802C27.9146 66.5802 27.5397 66.2028 27.5397 65.7373V62.8441C27.5397 61.4399 28.6765 60.3108 30.0675 60.3108H40.4405C41.8316 60.3108 42.9685 61.4399 42.9685 62.8441V72.461H54.6332V68.0178C49.4728 66.458 45.711 61.6657 45.711 55.9882C45.711 52.2734 47.3215 48.9375 49.8805 46.638L48.3793 46.7003H48.3792C47.6467 46.7304 46.9724 46.2894 46.708 45.5975L44.2719 39.2219V39.2218C44.2675 39.2103 44.254 39.1983 44.2345 39.1983H39.1925C38.5308 39.1983 37.9254 38.8157 37.6415 38.2114L37.6414 38.2112L34.7276 32.0037V32.0036C34.7228 31.9936 34.7118 31.9844 34.6963 31.9827L34.6962 31.9825L28.1829 31.2299C27.5587 31.1578 27.0215 30.748 26.787 30.1593L26.7869 30.1591L23.9761 23.0955L23.9711 23.087C23.9645 23.0788 23.9533 23.0723 23.9388 23.0723H16.1215C15.9802 23.0723 15.875 23.1854 15.875 23.3135V28.6164C15.8749 29.0819 15.5 29.4593 15.0375 29.4593C14.575 29.4593 14.2 29.0819 14.2 28.6164ZM48.9367 27.5292H52.7581V24.4207H48.9367V27.5292ZM43.4404 27.5292H47.2617V24.4207H43.4404V27.5292ZM37.9441 27.5292H41.7655V24.4207H37.9441V27.5292ZM48.9367 22.7349H52.7581V19.6262H48.9367V22.7349ZM43.4404 22.7349H47.2617V19.6262H43.4404V22.7349ZM37.9441 22.7349H41.7655V19.6262H37.9441V22.7349ZM32.4477 22.7349H36.2692V19.6262H32.4477V22.7349ZM26.9515 22.7349H30.7728V19.6262H26.9515V22.7349ZM48.9367 17.9405H52.7581V14.8319H48.9367V17.9405ZM43.4404 17.9405H47.2617V14.8319H43.4404V17.9405ZM37.9441 17.9405H41.7655V14.8319H37.9441V17.9405ZM32.4477 17.9405H36.2692V14.8319H32.4477V17.9405ZM26.9515 17.9405H30.7728V14.8319H26.9515V17.9405ZM43.4404 13.1461H47.2617V10.0376H43.4404V13.1461ZM37.9441 13.1461H41.7655V10.0376H37.9441V13.1461ZM32.4477 13.1461H36.2692V10.0376H32.4477V13.1461ZM26.9515 13.1461H30.7728V10.0376H26.9515V13.1461Z" fill="black"/>
</svg>
