<svg width="20" height="20" viewBox="0 0 20 20" fill="none" xmlns="http://www.w3.org/2000/svg">
<path d="M5.775 10.9746C5.63035 10.8294 5.54914 10.6327 5.54914 10.4277C5.54914 10.2227 5.63035 10.0261 5.775 9.88086C5.84586 9.80962 5.9301 9.75308 6.02288 9.71451C6.11566 9.67593 6.21514 9.65607 6.31562 9.65607C6.4161 9.65607 6.51559 9.67593 6.60837 9.71451C6.70115 9.75308 6.78539 9.80962 6.85625 9.88086L9.21875 12.2621V2.00586C9.21875 1.79866 9.30106 1.59995 9.44757 1.45343C9.59409 1.30692 9.7928 1.22461 10 1.22461C10.2072 1.22461 10.4059 1.30692 10.5524 1.45343C10.6989 1.59995 10.7812 1.79866 10.7812 2.00586V12.2621L13.125 9.88086C13.1959 9.80962 13.2801 9.75308 13.3729 9.71451C13.4657 9.67593 13.5651 9.65607 13.6656 9.65607C13.7661 9.65607 13.8656 9.67593 13.9584 9.71451C14.0512 9.75308 14.1354 9.80962 14.2062 9.88086C14.3509 10.0261 14.4321 10.2227 14.4321 10.4277C14.4321 10.6327 14.3509 10.8294 14.2062 10.9746L10.525 14.7246C10.4545 14.7976 10.37 14.8556 10.2766 14.8952C10.1832 14.9348 10.0827 14.9553 9.98125 14.9553C9.87978 14.9553 9.77934 14.9348 9.68593 14.8952C9.59251 14.8556 9.50802 14.7976 9.4375 14.7246L5.775 10.9746ZM17.9813 12.3246C17.7784 12.3246 17.5838 12.4047 17.4399 12.5476C17.2959 12.6904 17.2141 12.8843 17.2125 13.0871V16.7621C17.2125 16.8831 17.1644 16.9992 17.0789 17.0847C16.9933 17.1703 16.8773 17.2184 16.7562 17.2184H3.24375C3.18383 17.2184 3.12451 17.2066 3.06915 17.1836C3.0138 17.1607 2.9635 17.1271 2.92113 17.0847C2.87877 17.0424 2.84516 16.9921 2.82223 16.9367C2.7993 16.8814 2.7875 16.822 2.7875 16.7621V13.0871C2.7875 12.8832 2.70651 12.6877 2.56234 12.5435C2.41817 12.3994 2.22264 12.3184 2.01875 12.3184C1.81486 12.3184 1.61933 12.3994 1.47516 12.5435C1.33099 12.6877 1.25 12.8832 1.25 13.0871V16.7621C1.25165 17.2898 1.46244 17.7953 1.83616 18.1679C2.20988 18.5404 2.71606 18.7496 3.24375 18.7496H16.7562C17.2839 18.7496 17.7901 18.5404 18.1638 18.1679C18.5376 17.7953 18.7483 17.2898 18.75 16.7621V13.0871C18.7484 12.8843 18.6666 12.6904 18.5226 12.5476C18.3787 12.4047 18.1841 12.3246 17.9813 12.3246Z" fill="currentColor"/>
</svg>
