<svg width="22" height="19" viewBox="0 0 22 19" fill="none" xmlns="http://www.w3.org/2000/svg">
<path d="M2.5768 1.05848C5.47971 -0.875645 9.06437 0.0329926 10.9996 2.23426C12.9349 0.0330519 16.5196 -0.864756 19.4225 1.05848C20.9619 2.08428 21.9297 3.8152 21.9957 5.63172C22.1387 9.77777 18.3672 13.101 12.5944 18.1874L12.4733 18.2948C11.6376 19.0425 10.3509 19.0428 9.51527 18.3055L9.4059 18.2089C3.63305 13.1118 -0.149413 9.78853 0.00452987 5.64246C0.070533 3.81536 1.03759 2.08432 2.5768 1.05848ZM15.9479 2.1366C14.2545 2.1366 12.6046 3.19511 12.0329 4.65906H9.97719C9.3944 3.19511 7.74477 2.1366 6.0514 2.1366C3.85233 2.13666 2.20283 3.73979 2.20277 5.87683C2.20277 8.96496 5.6554 12.0107 10.8893 16.6161L10.9996 16.7225L11.11 16.6161C16.3439 12.0106 19.7965 8.96497 19.7965 5.87683C19.7965 3.73976 18.147 2.13662 15.9479 2.1366Z" fill="currentColor"/>
</svg>
