<svg width="21" height="18" viewBox="0 0 21 18" fill="none" xmlns="http://www.w3.org/2000/svg">
<path d="M2.38114 0.990395C5.06311 -0.819469 8.3754 0.0310203 10.1634 2.09098C11.9513 0.031074 15.2627 -0.809355 17.9446 0.990395C19.3669 1.95039 20.2606 3.57068 20.3216 5.27067C20.4536 9.15067 16.9695 12.2607 11.636 17.0207L11.5247 17.1203C10.7526 17.8203 9.56339 17.821 8.79129 17.131L8.68973 17.0402C3.35641 12.2704 -0.138039 9.16035 0.00418515 5.28043C0.0652223 3.57053 0.958941 1.95035 2.38114 0.990395ZM14.7347 2.00016C13.1702 2.00016 11.6457 2.99051 11.1175 4.36051H9.21805C8.67963 2.99053 7.15557 2.00019 5.5911 2.00016C3.55928 2.00016 2.03544 3.50016 2.03544 5.50016C2.03553 8.39009 5.22526 11.2401 10.0608 15.55L10.1624 15.6496L10.264 15.55C15.0996 11.24 18.2902 8.39012 18.2903 5.50016C18.2903 3.50031 16.7662 2.00039 14.7347 2.00016Z" fill="currentColor"/>
</svg>
