<svg width="323" height="90" viewBox="0 0 323 90" fill="none" xmlns="http://www.w3.org/2000/svg">
<g clip-path="url(#clip0_260_9988)">
<path d="M48.6653 0H37.7462L18.9785 16.6377H29.8976L48.6653 0Z" fill="black"/>
<path d="M38.8049 46.4162V32.2129H11.982H0V46.4162V75.5309V89.7342H11.982H38.8049V75.5309H11.982V46.4162H38.8049Z" fill="black"/>
<path d="M50.5753 32.2129H37.0039V50.3358H50.5753V32.2129Z" fill="#8BB26B"/>
<path d="M50.5753 71.6113H37.0039V89.7343H50.5753V71.6113Z" fill="#8BB26B"/>
<path d="M86.5746 89.7344L86.1465 34.0426L48.6652 0H37.7461L75.2274 34.0426L75.3947 55.9524H51.8489V67.8245H75.4832L75.6505 89.7344H86.5746Z" fill="#8BB26B"/>
<path d="M121.931 61.4412C121.853 62.4434 121.537 63.4126 121.011 64.2691C120.47 65.1356 119.71 65.8433 118.806 66.3199C117.759 66.8588 116.593 67.126 115.416 67.0969C114.238 67.1177 113.072 66.8563 112.016 66.3347C111.046 65.8397 110.204 65.1278 109.555 64.2543C108.88 63.3335 108.372 62.3015 108.054 61.2051C107.718 60.04 107.553 58.8324 107.562 57.6199C107.528 55.8057 107.806 53.9991 108.384 52.2789C108.825 50.8396 109.737 49.5901 110.974 48.7312C112.211 47.8723 113.701 47.4538 115.204 47.5429C117.404 47.5429 119.013 48.0347 119.987 49.0773C120.945 50.0216 121.525 51.2821 121.621 52.6232L121.655 53.0756H126.04L126 52.5494C125.916 51.5427 125.703 50.5509 125.366 49.5986C124.983 48.5499 124.394 47.5883 123.633 46.7707C122.709 45.7956 121.57 45.0496 120.307 44.592C118.664 44.0022 116.925 43.7237 115.18 43.7707C111.578 43.7707 108.827 44.715 107.006 46.574C105.363 48.1525 104.203 50.1651 103.66 52.3773C103.258 54.1532 103.046 55.9665 103.025 57.7871C103.025 61.6035 103.852 64.5396 105.486 66.4969C107.119 68.4543 108.842 69.6887 110.643 70.1805C112.153 70.6232 113.715 70.8662 115.288 70.9035C117.925 70.9035 120.081 70.3822 121.685 69.3592C123.153 68.4841 124.347 67.2146 125.129 65.6953C125.766 64.3967 126.178 63 126.35 61.5642L126.409 61.0232H121.98L121.931 61.4412Z" fill="black"/>
<path d="M127.166 48.2409H135.202V70.1753H139.517V48.2409H147.553V44.4688H127.166V48.2409Z" fill="black"/>
<path d="M160.608 44.4688H150.043V70.1753H154.358V60.3097H160.308C161.773 60.342 163.233 60.1292 164.628 59.6802C165.725 59.3265 166.721 58.7142 167.531 57.895C168.235 57.1449 168.757 56.2429 169.057 55.2589C169.362 54.2178 169.512 53.1372 169.5 52.0524C169.5 47.0212 166.508 44.4688 160.608 44.4688ZM154.358 48.2409H159.924C161.646 48.2409 162.97 48.5507 163.86 49.1606C164.751 49.7704 165.105 50.7048 165.105 52.1114C165.143 52.7036 165.062 53.2975 164.866 53.8576C164.67 54.4178 164.363 54.9328 163.964 55.372C163.226 56.1442 161.892 56.5573 159.924 56.5573H154.358V48.2409Z" fill="black"/>
<path d="M192.651 47.4488C191.58 46.2432 190.247 45.2993 188.754 44.6898C185.407 43.4211 181.712 43.4211 178.366 44.6898C176.873 45.3019 175.541 46.2493 174.474 47.4586C173.38 48.7176 172.559 50.1896 172.063 51.7815C171.504 53.5722 171.227 55.4387 171.241 57.3143C171.184 59.7851 171.666 62.2385 172.653 64.5045C173.539 66.4834 175.013 68.142 176.875 69.2553C178.908 70.3967 181.212 70.9661 183.543 70.9028C185.324 70.9304 187.094 70.6114 188.754 69.9635C190.253 69.3648 191.591 68.4232 192.661 67.2143C193.743 65.9554 194.553 64.4872 195.042 62.9012C195.595 61.0911 195.866 59.2067 195.844 57.3143C195.867 55.4283 195.597 53.5501 195.042 51.7471C194.551 50.1644 193.737 48.7008 192.651 47.4488ZM191.337 57.3143C191.371 59.0929 191.074 60.8623 190.461 62.5324C189.961 63.9003 189.057 65.0839 187.868 65.9258C186.585 66.7636 185.074 67.1845 183.543 67.1307C181.604 67.1307 180.044 66.6635 178.907 65.7438C177.755 64.8167 176.907 63.5664 176.472 62.1537C175.988 60.5864 175.747 58.9544 175.758 57.3143C175.758 54.5209 176.25 52.3963 177.156 50.9209C178.061 49.4455 179.124 48.5553 180.221 48.1471C181.282 47.7405 182.406 47.5241 183.543 47.5078C184.458 47.51 185.367 47.6526 186.239 47.9307C187.156 48.2401 187.995 48.7433 188.7 49.4061C189.553 50.2431 190.197 51.2692 190.579 52.4012C191.119 53.9817 191.375 55.6448 191.337 57.3143Z" fill="black"/>
<path d="M203.778 63.231V44.4688H199.463V70.1753H203.557L215.977 51.2802V70.1753H220.292V44.4688H216.203L203.778 63.231Z" fill="black"/>
<path d="M205.082 42.8794C206.066 43.9614 207.699 44.5073 209.894 44.5073C211.083 44.5455 212.264 44.2993 213.339 43.7893C214.202 43.3634 214.937 42.717 215.469 41.9155C215.947 41.1637 216.28 40.3299 216.453 39.4565L216.562 38.8516H212.866V39.3434C212.82 39.9638 212.541 40.5437 212.084 40.9663C211.781 41.2231 211.43 41.4171 211.052 41.537C210.673 41.6569 210.275 41.7003 209.879 41.6647C209.136 41.7199 208.396 41.5185 207.783 41.0942C207.277 40.616 206.961 39.9717 206.892 39.2794L206.823 38.8663H203.246L203.33 39.427C203.545 40.7303 204.157 41.9357 205.082 42.8794Z" fill="black"/>
<path d="M241.083 54.7622H229.622V44.4688H225.307V70.1753H229.622V58.5392H241.083V70.1753H245.398V44.4688H241.083V54.7622Z" fill="black"/>
<path d="M270.414 47.4488C269.344 46.2432 268.01 45.2993 266.517 44.6898C263.171 43.4211 259.476 43.4211 256.13 44.6898C254.636 45.3031 253.303 46.2502 252.232 47.4586C251.14 48.7179 250.321 50.1899 249.826 51.7815C249.274 53.5748 249.003 55.443 249.024 57.3193C248.967 59.79 249.449 62.2434 250.436 64.5094C251.323 66.4884 252.797 68.1469 254.658 69.2602C256.688 70.3999 258.989 70.9692 261.316 70.9078C263.096 70.9358 264.864 70.6168 266.522 69.9684C268.022 69.3713 269.361 68.4295 270.429 67.2192C271.514 65.9618 272.327 64.4932 272.816 62.9061C273.36 61.0931 273.623 59.2071 273.593 57.3143C273.618 55.4285 273.349 53.5504 272.796 51.7471C272.308 50.1652 271.497 48.7016 270.414 47.4488ZM269.101 57.3143C269.135 59.0929 268.838 60.8623 268.225 62.5324C267.725 63.9003 266.82 65.0839 265.631 65.9258C264.353 66.7607 262.848 67.1814 261.321 67.1307C259.382 67.1307 257.822 66.6635 256.681 65.7438C255.53 64.8164 254.683 63.566 254.25 62.1537C253.762 60.5872 253.52 58.9548 253.531 57.3143C253.531 54.5209 254.023 52.3963 254.934 50.9209C255.844 49.4455 256.902 48.5553 257.999 48.1471C259.06 47.7367 260.184 47.5169 261.321 47.4979C262.236 47.5005 263.145 47.6432 264.017 47.9209C264.934 48.2303 265.773 48.7335 266.478 49.3963C267.331 50.2333 267.975 51.2594 268.358 52.3914C268.893 53.9758 269.145 55.6424 269.101 57.3143Z" fill="black"/>
<path d="M293.335 56.5278C294.021 56.1743 294.632 55.6897 295.131 55.1015C296.029 54.0254 296.499 52.6561 296.45 51.2556C296.472 49.5314 295.875 47.8563 294.767 46.5343C293.63 45.1622 291.549 44.4688 288.587 44.4688H277.225V70.1753H288.188C294.418 70.1753 297.577 67.6868 297.577 62.7982C297.577 60.831 297.006 59.2376 295.879 58.1458C295.157 57.4301 294.29 56.8783 293.335 56.5278ZM291.687 53.2622C291.395 53.7932 290.939 54.2158 290.388 54.4671C289.548 54.8331 288.636 55.0013 287.721 54.9589H281.54V48.2409H287.824C289.556 48.2409 290.698 48.5802 291.229 49.2245C291.773 49.881 292.07 50.7079 292.066 51.5605C292.075 52.1496 291.945 52.7326 291.687 53.2622ZM292.44 64.9474C291.976 65.511 291.343 65.9096 290.634 66.0835C289.747 66.3032 288.836 66.409 287.922 66.3982H281.525V58.7409H287.922C289.758 58.7409 291.111 59.0507 291.947 59.6605C292.784 60.2704 293.133 61.1753 293.133 62.5179C293.192 63.3838 292.947 64.243 292.44 64.9474Z" fill="black"/>
<path d="M312.305 44.4688H308.063L298.32 70.1753H302.936L305.273 63.7819H315.061L317.432 70.1753H322.043L312.305 44.4688ZM313.806 59.9999H306.518L310.165 49.7704L313.806 59.9999Z" fill="black"/>
<path d="M107.341 86.7202L105.329 81.5169V81.7529V86.7202H104.492V80.5234H105.737L107.676 85.6284L109.615 80.5234H110.86V86.7202H110.023V81.7529V81.5169L108.011 86.7202H107.341Z" fill="#878787"/>
<path d="M113.202 80.5236V83.0465H114.988C115.242 83.0521 115.495 83.0868 115.741 83.1498C116.066 83.2289 116.361 83.3996 116.592 83.6416C116.74 83.8121 116.853 84.0104 116.924 84.2248C116.995 84.4392 117.023 84.6656 117.005 84.8908C117.035 85.1587 116.994 85.4298 116.887 85.6772C116.78 85.9247 116.611 86.1401 116.395 86.3023C115.977 86.5726 115.486 86.7113 114.988 86.7006H112.365V80.5039L113.202 80.5236ZM113.202 83.7498V86.0219H114.87C115.184 86.0278 115.492 85.9349 115.751 85.7564C115.883 85.6555 115.988 85.5228 116.055 85.3706C116.122 85.2183 116.149 85.0516 116.135 84.8859C116.138 84.6845 116.093 84.4852 116.002 84.3055C115.904 84.1252 115.751 83.9817 115.564 83.8973C115.314 83.7896 115.043 83.7392 114.771 83.7498H113.202ZM117.63 80.5236H118.467V86.7203H117.63V80.5236Z" fill="#878787"/>
<path d="M127.295 84.6632H128.156C128.111 85.0048 128.011 85.3369 127.861 85.6468C127.675 86.006 127.392 86.3058 127.044 86.5124C126.576 86.7794 126.042 86.9074 125.504 86.8813C125.12 86.8725 124.739 86.813 124.372 86.7042C123.881 86.5434 123.452 86.2361 123.142 85.8239C122.707 85.2102 122.5 84.464 122.556 83.7141C122.561 83.269 122.612 82.8256 122.709 82.3911C122.842 81.8607 123.121 81.3784 123.516 80.9993C123.781 80.7599 124.092 80.5771 124.431 80.4621C124.769 80.347 125.127 80.3023 125.484 80.3305C125.905 80.3198 126.323 80.3882 126.719 80.5321C127.016 80.6323 127.286 80.8007 127.506 81.0239C127.688 81.2159 127.827 81.4437 127.915 81.6927C127.996 81.9212 128.047 82.1593 128.067 82.4009H127.216C127.195 82.0298 127.037 81.6795 126.773 81.4173C126.598 81.2633 126.393 81.1463 126.172 81.0736C125.95 81.0009 125.716 80.974 125.484 80.9944C125.082 80.9746 124.685 81.0884 124.355 81.3179C124.024 81.5475 123.78 81.8799 123.658 82.2632C123.509 82.7066 123.437 83.1725 123.447 83.6403C123.445 83.9566 123.49 84.2714 123.579 84.5747C123.663 84.8642 123.797 85.137 123.973 85.3813C124.262 85.7358 124.662 85.9829 125.108 86.0828C125.554 86.1827 126.021 86.1296 126.434 85.9321C126.677 85.8001 126.883 85.6069 127.029 85.3714C127.169 85.1582 127.26 84.9162 127.295 84.6632Z" fill="#878787"/>
<path d="M130.621 81.2267H128.604V80.5234H133.47V81.2267H131.458V86.7202H130.621V81.2267Z" fill="#878787"/>
<path d="M134.336 80.5234H136.86C138.268 80.5234 138.966 81.1185 138.966 82.3038C138.969 82.5632 138.934 82.8216 138.863 83.071C138.791 83.2993 138.67 83.5092 138.509 83.6857C138.318 83.8748 138.085 84.0163 137.83 84.0988C137.493 84.209 137.14 84.2606 136.786 84.2513H135.172V86.7103H134.336V80.5234ZM135.172 81.2267V83.548H136.693C137.089 83.5881 137.484 83.4716 137.795 83.2234C138.018 82.9761 138.133 82.6506 138.115 82.3185C138.13 82.1591 138.104 81.9984 138.041 81.8515C137.977 81.7045 137.877 81.5759 137.751 81.4775C137.431 81.2908 137.063 81.2034 136.693 81.2267H135.172Z" fill="#878787"/>
<path d="M142.619 86.9061C142.058 86.9226 141.503 86.7848 141.015 86.5077C140.568 86.2419 140.214 85.8453 140.001 85.3717C139.763 84.8194 139.647 84.2221 139.661 83.6209C139.655 83.1625 139.722 82.706 139.858 82.2684C139.975 81.8859 140.171 81.5324 140.434 81.2307C140.689 80.9411 141.007 80.7139 141.364 80.5668C141.763 80.4095 142.19 80.3326 142.619 80.3405C143.048 80.3317 143.475 80.4086 143.874 80.5668C144.232 80.7127 144.553 80.94 144.808 81.2307C145.068 81.5326 145.264 81.8839 145.384 82.2635C145.647 83.1511 145.647 84.0956 145.384 84.9832C145.269 85.3654 145.075 85.7191 144.813 86.0209C144.556 86.3086 144.236 86.534 143.878 86.6799C143.477 86.8352 143.049 86.912 142.619 86.9061ZM142.619 86.2028C143.027 86.2166 143.429 86.1032 143.77 85.8782C144.089 85.6545 144.331 85.3387 144.464 84.9733C144.754 84.122 144.766 83.2008 144.498 82.3422C144.401 82.0409 144.232 81.7676 144.006 81.5454C143.816 81.3675 143.59 81.2332 143.342 81.152C143.111 81.0782 142.871 81.04 142.629 81.0389C142.33 81.0441 142.035 81.1024 141.758 81.211C141.406 81.3599 141.113 81.621 140.926 81.9536C140.649 82.464 140.522 83.0416 140.557 83.6209C140.553 84.0441 140.615 84.4654 140.739 84.87C140.854 85.2546 141.08 85.5967 141.389 85.8536C141.746 86.1079 142.181 86.2312 142.619 86.2028Z" fill="#878787"/>
<path d="M147.563 85.5103L150.865 80.5234H151.706V86.7202H150.865V81.6988L147.563 86.7202H146.727V80.5234H147.563V85.5103Z" fill="#878787"/>
<path d="M156.056 86.7202L154.044 81.5169V81.7529V86.7202H153.207V80.5234H154.452L156.391 85.6284L158.33 80.5234H159.579V86.7202H158.743V81.7529V81.5169L156.725 86.7202H156.056Z" fill="#878787"/>
<path d="M166.813 86.9559V86.0165H166.474C166.06 86.0145 165.649 85.9532 165.253 85.8345C164.822 85.7038 164.437 85.451 164.146 85.1067C163.797 84.6701 163.622 84.1202 163.654 83.5624C163.638 83.1214 163.738 82.6839 163.944 82.2936C164.121 81.9799 164.377 81.7186 164.687 81.5362C164.968 81.3724 165.274 81.2561 165.593 81.1919C165.88 81.1383 166.172 81.1103 166.464 81.1083H166.813V80.1641H167.65V81.0985H167.994C168.41 81.1001 168.825 81.1597 169.224 81.2755C169.711 81.4138 170.134 81.7164 170.422 82.1316C170.71 82.5468 170.845 83.049 170.804 83.5526C170.824 84.0123 170.711 84.4681 170.479 84.8657C170.286 85.1834 170.01 85.4432 169.682 85.6182C169.398 85.7714 169.09 85.8777 168.772 85.9329C168.515 85.9789 168.255 86.0036 167.994 86.0067H167.65V86.946L166.813 86.9559ZM166.813 85.3673V81.7575H166.582C165.76 81.7575 165.214 81.9395 164.938 82.3132C164.671 82.6745 164.53 83.1132 164.535 83.5624C164.533 83.8453 164.579 84.1265 164.673 84.3936C164.784 84.6832 164.993 84.9249 165.263 85.0772C165.667 85.2949 166.124 85.3954 166.582 85.3673H166.813ZM167.65 85.3673H167.886C169.247 85.3673 169.93 84.7657 169.933 83.5624C169.96 83.15 169.841 82.7411 169.598 82.4067C169.398 82.1546 169.125 81.9707 168.816 81.8805C168.513 81.7973 168.2 81.7559 167.886 81.7575H167.65V85.3673Z" fill="#878787"/>
<path d="M174.032 84.2513L175.508 80.5234H176.375L174.278 85.6185C174.173 85.9039 174.017 86.1674 173.816 86.3956C173.684 86.55 173.515 86.6671 173.324 86.7349C173.129 86.7912 172.926 86.8177 172.723 86.8136C172.489 86.814 172.255 86.7826 172.03 86.7202V85.9972C172.219 86.0594 172.416 86.0926 172.615 86.0956C172.822 86.099 173.023 86.0313 173.186 85.9038C173.39 85.7106 173.53 85.4603 173.589 85.1857L171.242 80.5234H172.256L174.032 84.2513Z" fill="#878787"/>
<path d="M177.953 83.8038V86.7202H177.111V80.5234H177.953V83.1152H181.082V80.5333H181.919V86.73H181.082V83.8038H177.953Z" fill="#878787"/>
<path d="M188.184 86.0217H189.08L189.001 88.1266H188.278V86.72H183.45V88.1266H182.727L182.658 86.0217H183.219C183.441 85.7388 183.628 85.43 183.775 85.102C183.922 84.7867 184.036 84.4571 184.115 84.1184C184.199 83.7673 184.258 83.4107 184.292 83.0512C184.326 82.6823 184.351 82.2741 184.361 81.8217L184.395 80.543H188.184V86.0217ZM187.348 81.2266H185.222L185.197 81.9938C185.197 82.5495 185.158 83.0118 185.128 83.3758C185.081 83.8031 184.992 84.2248 184.863 84.6348C184.711 85.1265 184.489 85.5936 184.203 86.0217H187.348V81.2266Z" fill="#878787"/>
<path d="M190.638 85.1169L190.053 86.7202H189.162L191.509 80.5234H192.4L194.747 86.7202H193.876L193.281 85.1169H190.638ZM190.865 84.4185H193.04L191.952 81.3644L190.865 84.4185Z" fill="#878787"/>
<path d="M198.306 86.7202L196.294 81.5169V81.7529V86.7202H195.457V80.5234H196.702L198.641 85.6284L200.58 80.5234H201.824V86.7202H200.988V81.7529V81.5169L198.975 86.7202H198.306Z" fill="#878787"/>
<path d="M204.18 83.1693H207.433V83.8726H204.18V86.0218H207.866V86.7202H203.344V80.5234H207.772V81.2267H204.19L204.18 83.1693Z" fill="#878787"/>
<path d="M209.624 83.8038V86.7202H208.787V80.5234H209.624V83.1152H212.743V80.5333H213.56V86.73H212.724V83.8038H209.624Z" fill="#878787"/>
<path d="M216.443 81.2267H214.426V80.5234H219.292V81.2267H217.28V86.7202H216.443V81.2267Z" fill="#878787"/>
<path d="M227.485 84.6639H228.346C228.306 85.0064 228.206 85.3394 228.051 85.6475C227.867 86.0077 227.583 86.3079 227.234 86.513C226.767 86.7805 226.232 86.9085 225.694 86.8819C225.311 86.8728 224.93 86.8133 224.562 86.7048C224.073 86.5426 223.644 86.2356 223.332 85.8245C222.9 85.2097 222.693 84.4644 222.747 83.7147C222.753 83.2694 222.806 82.8261 222.904 82.3917C223.035 81.8605 223.315 81.3777 223.711 80.9999C223.976 80.7595 224.287 80.5761 224.626 80.461C224.964 80.3459 225.323 80.3017 225.679 80.3311C226.1 80.3204 226.519 80.3888 226.915 80.5327C227.19 80.6284 227.44 80.7839 227.648 80.9881C227.855 81.1922 228.015 81.4398 228.115 81.713C228.195 81.9417 228.244 82.1798 228.263 82.4212H227.412C227.39 82.0501 227.232 81.6998 226.969 81.4376C226.794 81.2835 226.589 81.1666 226.367 81.0939C226.146 81.0212 225.912 80.9942 225.679 81.0147C225.269 80.999 224.864 81.1182 224.528 81.354C224.213 81.5874 223.978 81.9119 223.854 82.2835C223.707 82.7275 223.635 83.193 223.642 83.6606C223.641 83.9769 223.686 84.2916 223.775 84.595C223.859 84.8855 223.994 85.1587 224.174 85.4016C224.347 85.636 224.573 85.8264 224.833 85.9573C225.114 86.0969 225.425 86.1661 225.738 86.1589C226.054 86.1668 226.367 86.0958 226.649 85.9524C226.894 85.8206 227.101 85.6274 227.249 85.3917C227.382 85.1702 227.463 84.9213 227.485 84.6639Z" fill="#878787"/>
<path d="M230.29 83.1693H233.542V83.8726H230.29V86.0218H233.975V86.7202H229.453V80.5234H233.882V81.2267H230.29V83.1693Z" fill="#878787"/>
<path d="M237.711 86.7202L235.704 81.5169V81.7529V86.7202H234.867V80.5234H236.117L238.056 85.6284L239.995 80.5234H241.24V86.7202H240.403V81.7529L240.428 81.5169H240.403L238.39 86.7202H237.711Z" fill="#878787"/>
<path d="M243.577 83.1693H246.829V83.8726H243.577V86.0218H247.267V86.7202H242.74V80.5234H247.169V81.2267H243.577V83.1693Z" fill="#878787"/>
<path d="M248.989 85.5097L252.291 80.5228H253.127V86.7195H252.291V81.6982L248.989 86.7195H248.152V80.5228H248.989V85.5097ZM249.122 79.1162H249.771C249.794 79.3193 249.888 79.5077 250.037 79.6474C250.214 79.7705 250.427 79.8295 250.642 79.8146C250.758 79.8247 250.874 79.8112 250.984 79.7748C251.094 79.7385 251.195 79.68 251.282 79.6031C251.415 79.4727 251.494 79.2972 251.503 79.1113H252.163C252.125 79.3158 252.048 79.511 251.936 79.6867C251.814 79.871 251.644 80.0188 251.444 80.1146C251.192 80.2308 250.915 80.2863 250.637 80.2769C250.436 80.2952 250.233 80.2719 250.04 80.2085C249.848 80.145 249.671 80.0428 249.52 79.908C249.312 79.6919 249.175 79.4174 249.127 79.1212L249.122 79.1162Z" fill="#878787"/>
<path d="M255.469 83.8038V86.7202H254.633V80.5234H255.469V83.1152H258.589V80.5333H259.426V86.73H258.589V83.8038H255.469Z" fill="#878787"/>
<path d="M263.541 86.9061C262.978 86.9225 262.421 86.7847 261.932 86.5077C261.496 86.2377 261.152 85.8415 260.947 85.3717C260.705 84.8205 260.587 84.2227 260.603 83.6209C260.597 83.1625 260.663 82.706 260.8 82.2684C260.921 81.8867 261.118 81.5336 261.38 81.2307C261.634 80.9395 261.953 80.712 262.31 80.5668C262.709 80.4086 263.136 80.3317 263.565 80.3405C263.994 80.3326 264.421 80.4095 264.82 80.5668C265.178 80.712 265.496 80.9395 265.75 81.2307C266.014 81.5298 266.21 81.882 266.326 82.2635C266.588 83.1511 266.588 84.0956 266.326 84.9832C266.211 85.3654 266.016 85.7191 265.755 86.0209C265.499 86.3109 265.179 86.5367 264.82 86.6799C264.412 86.8379 263.978 86.9147 263.541 86.9061ZM263.541 86.2028C263.949 86.2167 264.351 86.1032 264.692 85.8782C265.01 85.6545 265.253 85.3387 265.386 84.9733C265.676 84.122 265.688 83.2008 265.42 82.3422C265.32 82.0421 265.152 81.7693 264.928 81.5454C264.732 81.3639 264.499 81.2278 264.244 81.1471C264.014 81.0736 263.773 81.0355 263.531 81.034C263.231 81.0387 262.934 81.097 262.655 81.2061C262.305 81.3577 262.013 81.6182 261.823 81.9487C261.547 82.459 261.419 83.0366 261.454 83.6159C261.452 84.0395 261.515 84.4608 261.641 84.8651C261.752 85.2516 261.979 85.5949 262.291 85.8487C262.653 86.1091 263.095 86.2344 263.541 86.2028Z" fill="#878787"/>
<path d="M268.485 81.2267V86.7202H267.648V80.5234H271.585V81.2267H268.485Z" fill="#878787"/>
<path d="M275.068 86.9071C274.507 86.9236 273.952 86.7858 273.464 86.5087C273.028 86.2388 272.685 85.8425 272.48 85.3727C272.229 84.8186 272.104 84.2154 272.116 83.6071C272.11 83.1487 272.176 82.6923 272.313 82.2546C272.43 81.8722 272.626 81.5186 272.889 81.2169C273.144 80.9262 273.465 80.6989 273.823 80.553C274.221 80.3954 274.646 80.3185 275.073 80.3268C275.504 80.3185 275.932 80.3953 276.333 80.553C276.691 80.6983 277.01 80.9257 277.263 81.2169C277.527 81.516 277.723 81.8682 277.839 82.2497C278.101 83.1373 278.101 84.0818 277.839 84.9694C277.724 85.3517 277.529 85.7053 277.268 86.0071C277.011 86.2959 276.691 86.5215 276.333 86.6661C275.931 86.8271 275.502 86.909 275.068 86.9071ZM275.068 86.2038C275.475 86.2166 275.876 86.1032 276.215 85.8792C276.536 85.6584 276.779 85.3416 276.909 84.9743C277.07 84.5419 277.148 84.0832 277.14 83.6219C277.153 83.1872 277.086 82.7539 276.943 82.3432C276.846 82.0419 276.677 81.7686 276.451 81.5465C276.261 81.3685 276.034 81.2342 275.787 81.153C275.558 81.0792 275.319 81.041 275.078 81.0399C274.778 81.0446 274.482 81.1029 274.202 81.212C273.852 81.3624 273.56 81.6232 273.371 81.9546C273.094 82.465 272.966 83.0426 273.002 83.6219C273 84.0454 273.063 84.4667 273.189 84.871C273.3 85.2576 273.526 85.6008 273.838 85.8547C274.196 86.1093 274.63 86.2326 275.068 86.2038Z" fill="#878787"/>
<path d="M286.516 84.6639H287.372C287.332 85.0064 287.232 85.3394 287.077 85.6475C286.892 86.0077 286.609 86.3079 286.26 86.513C285.792 86.7805 285.258 86.9085 284.72 86.8819C284.336 86.8728 283.956 86.8133 283.588 86.7048C283.098 86.5426 282.669 86.2356 282.358 85.8245C281.925 85.2097 281.718 84.4644 281.772 83.7147C281.779 83.2694 281.832 82.8261 281.93 82.3917C282.061 81.8605 282.341 81.3777 282.737 80.9999C283.001 80.7595 283.313 80.5761 283.651 80.461C283.99 80.3459 284.348 80.3017 284.705 80.3311C285.126 80.3204 285.545 80.3888 285.94 80.5327C286.215 80.6284 286.465 80.7839 286.673 80.9881C286.881 81.1922 287.04 81.4398 287.141 81.713C287.22 81.9417 287.27 82.1798 287.288 82.4212H286.437C286.416 82.0501 286.258 81.6998 285.994 81.4376C285.819 81.2835 285.615 81.1666 285.393 81.0939C285.171 81.0212 284.937 80.9942 284.705 81.0147C284.294 80.999 283.89 81.1182 283.553 81.354C283.239 81.5874 283.003 81.9119 282.879 82.2835C282.732 82.7275 282.661 83.193 282.668 83.6606C282.666 83.9769 282.711 84.2916 282.801 84.595C282.884 84.8855 283.019 85.1587 283.199 85.4016C283.372 85.636 283.598 85.8264 283.858 85.9573C284.139 86.0969 284.45 86.1661 284.764 86.1589C285.08 86.1668 285.393 86.0958 285.674 85.9524C285.92 85.8206 286.126 85.6274 286.275 85.3917C286.409 85.1706 286.492 84.9217 286.516 84.6639Z" fill="#878787"/>
<path d="M288.232 80.5234H289.069V82.3382C289.054 82.5711 289.101 82.8037 289.207 83.012C289.314 83.1684 289.478 83.2762 289.664 83.312C289.957 83.3737 290.256 83.4001 290.555 83.3906C290.821 83.3906 291.219 83.3907 291.756 83.3316V80.5234H292.592V86.7202H291.756V84.03C291.073 84.0693 290.621 84.089 290.398 84.089C289.983 84.0996 289.568 84.06 289.163 83.971C288.876 83.9025 288.628 83.7263 288.469 83.4792C288.291 83.167 288.209 82.8096 288.232 82.4513V80.5234Z" fill="#878787"/>
<path d="M294.791 85.1169L294.205 86.7202H293.314L295.662 80.5234H296.557L298.904 86.7202H298.009L297.418 85.1169H294.791ZM295.017 84.4185H297.212L296.124 81.3644L295.017 84.4185Z" fill="#878787"/>
<path d="M304.013 84.6634H304.875C304.83 85.005 304.73 85.3371 304.579 85.647C304.393 86.0061 304.11 86.306 303.762 86.5126C303.294 86.7788 302.76 86.9067 302.222 86.8814C301.839 86.8727 301.458 86.8132 301.09 86.7044C300.6 86.5435 300.171 86.2363 299.86 85.824C299.425 85.2103 299.218 84.4642 299.275 83.7142C299.28 83.2691 299.331 82.8258 299.427 82.3913C299.56 81.8609 299.84 81.3786 300.234 80.9995C300.499 80.7598 300.811 80.5768 301.149 80.4618C301.488 80.3468 301.846 80.3021 302.203 80.3306C302.623 80.3199 303.042 80.3883 303.438 80.5322C303.735 80.6324 304.005 80.8009 304.225 81.024C304.405 81.2174 304.544 81.4448 304.633 81.6929C304.715 81.9214 304.766 82.1594 304.786 82.4011H303.935C303.908 82.0311 303.751 81.6825 303.492 81.4175C303.317 81.2634 303.112 81.1465 302.891 81.0738C302.669 81.0011 302.435 80.9741 302.203 80.9945C301.8 80.973 301.403 81.0861 301.072 81.3159C300.741 81.5457 300.497 81.8791 300.377 82.2634C300.227 82.7068 300.156 83.1727 300.165 83.6404C300.164 83.9567 300.209 84.2715 300.298 84.5749C300.38 84.8651 300.513 85.1384 300.692 85.3814C300.873 85.625 301.11 85.8211 301.384 85.9529C301.657 86.0848 301.958 86.1486 302.262 86.1388C302.577 86.1461 302.89 86.0751 303.172 85.9322C303.416 85.8003 303.621 85.607 303.767 85.3716C303.901 85.1567 303.985 84.9148 304.013 84.6634Z" fill="#878787"/>
<path d="M307.34 81.2267H305.322V80.5234H310.189V81.2267H308.176V86.7202H307.34V81.2267Z" fill="#878787"/>
<path d="M311.895 80.5234V83.0464H313.676C313.972 83.049 314.265 83.0937 314.547 83.1792C314.862 83.2822 315.14 83.4733 315.349 83.73C315.554 84.046 315.674 84.4099 315.695 84.7858C315.717 85.1618 315.64 85.5369 315.472 85.8743C315.341 86.1063 315.149 86.2984 314.916 86.43C314.715 86.5457 314.495 86.6256 314.267 86.6661C314.072 86.7022 313.875 86.7204 313.676 86.7202H311.059V80.5234H311.895ZM311.895 83.7497V86.0218H313.578C313.757 86.0186 313.934 85.9905 314.105 85.9382C314.327 85.8708 314.519 85.7298 314.651 85.5386C314.782 85.3474 314.845 85.1171 314.828 84.8857C314.828 84.1284 314.375 83.7497 313.465 83.7497H311.895Z" fill="#878787"/>
<path d="M320.689 84.2559H319.276L317.761 86.7149H316.732L318.415 84.1674C318.248 84.1503 318.083 84.1157 317.923 84.0641C317.731 84.0069 317.549 83.9171 317.387 83.7985C317.192 83.6567 317.035 83.4692 316.929 83.2526C316.797 82.9785 316.733 82.6765 316.742 82.3723C316.738 82.057 316.804 81.7447 316.934 81.4576C317.076 81.1636 317.311 80.9249 317.603 80.7789C318.002 80.5884 318.441 80.4988 318.883 80.5182H321.535V86.7149H320.699L320.689 84.2559ZM320.689 81.2264H318.942C318.748 81.2027 318.552 81.2226 318.367 81.2847C318.182 81.3469 318.014 81.4496 317.874 81.5854C317.686 81.8102 317.585 82.0944 317.589 82.3871C317.582 82.5431 317.609 82.6988 317.665 82.8444C317.722 82.9899 317.808 83.1222 317.918 83.233C318.244 83.4826 318.652 83.5987 319.06 83.5576H320.689V81.2264Z" fill="#878787"/>
</g>
<defs>
<clipPath id="clip0_260_9988">
<rect width="322.043" height="89.7294" fill="white"/>
</clipPath>
</defs>
</svg>
