<svg width="24" height="24" viewBox="0 0 24 24" fill="none" xmlns="http://www.w3.org/2000/svg">
<path d="M8.79863 24H2.0779C0.932121 24 0 23.0679 0 21.9221V15.2014C0 14.0556 0.932121 13.1235 2.0779 13.1235H8.79863C9.9444 13.1235 10.8765 14.0556 10.8765 15.2014V21.9221C10.8766 23.0679 9.9444 24 8.79863 24ZM9.18642 15.2014C9.18642 14.9876 9.01244 14.8136 8.79863 14.8136H2.0779C1.86408 14.8136 1.6901 14.9876 1.6901 15.2014V21.9221C1.6901 22.1359 1.86408 22.3099 2.0779 22.3099H8.79863C9.01244 22.3099 9.18642 22.1359 9.18642 21.9221V15.2014Z" fill="currentColor"/>
<path d="M21.9217 24H15.2009C14.0552 24 13.123 23.0679 13.123 21.9221V15.2014C13.123 14.0556 14.0552 13.1235 15.2009 13.1235H21.9217C23.0675 13.1235 23.9996 14.0556 23.9996 15.2014V21.9221C23.9996 23.0679 23.0675 24 21.9217 24ZM22.3095 15.2014C22.3095 14.9876 22.1355 14.8136 21.9217 14.8136H15.2009C14.9871 14.8136 14.8131 14.9876 14.8131 15.2014V21.9221C14.8131 22.1359 14.9871 22.3099 15.2009 22.3099H21.9217C22.1355 22.3099 22.3095 22.1359 22.3095 21.9221V15.2014Z" fill="currentColor"/>
<path d="M8.79863 10.877H2.0779C0.932121 10.877 0 9.94475 0 8.79897V2.07824C0 0.932467 0.932121 0.000346184 2.0779 0.000346184H8.79863C9.9444 0.000346184 10.8765 0.932467 10.8765 2.07824V8.79897C10.8766 9.94475 9.9444 10.877 8.79863 10.877ZM9.18642 2.07824C9.18642 1.86443 9.01244 1.69045 8.79863 1.69045H2.0779C1.86408 1.69045 1.6901 1.86443 1.6901 2.07824V8.79897C1.6901 9.01279 1.86408 9.18677 2.0779 9.18677H8.79863C9.01244 9.18677 9.18642 9.01279 9.18642 8.79897V2.07824Z" fill="currentColor"/>
<path d="M21.9217 10.877H15.2009C14.0552 10.877 13.123 9.94483 13.123 8.79905V2.07833C13.123 0.932549 14.0552 0.0004282 15.2009 0.0004282H21.9217C23.0675 0.000347137 23.9996 0.932467 23.9996 2.07824V8.79897C23.9996 9.94475 23.0675 10.877 21.9217 10.877ZM22.3095 2.07824C22.3095 1.86443 22.1355 1.69045 21.9217 1.69045H15.2009C14.9871 1.69045 14.8131 1.86443 14.8131 2.07824V8.79897C14.8131 9.01279 14.9871 9.18677 15.2009 9.18677H21.9217C22.1355 9.18677 22.3095 9.01279 22.3095 8.79897V2.07824Z" fill="currentColor"/>
</svg>
