<svg width="24" height="24" viewBox="0 0 24 24" fill="none" xmlns="http://www.w3.org/2000/svg">
<path d="M19.2222 15.2695L16.6822 14.9795C16.0722 14.9095 15.4722 15.1195 15.0422 15.5495L13.2022 17.3895C10.3722 15.9495 8.05223 13.6395 6.61223 10.7995L8.46223 8.94953C8.89223 8.51953 9.10223 7.91953 9.03223 7.30953L8.74223 4.78953C8.62223 3.77953 7.77223 3.01953 6.75223 3.01953H5.02223C3.89223 3.01953 2.95223 3.95953 3.02223 5.08953C3.55223 13.6295 10.3822 20.4495 18.9122 20.9795C20.0422 21.0495 20.9822 20.1095 20.9822 18.9795V17.2495C20.9922 16.2395 20.2322 15.3895 19.2222 15.2695Z" fill="url(#paint0_linear_315_19926)"/>
<defs>
<linearGradient id="paint0_linear_315_19926" x1="4.47349" y1="3.8744" x2="17.9621" y2="21.9716" gradientUnits="userSpaceOnUse">
<stop stop-color="#E18411"/>
<stop offset="1" stop-color="#E13B11"/>
</linearGradient>
</defs>
</svg>
