<svg width="24" height="24" viewBox="0 0 24 24" fill="none" xmlns="http://www.w3.org/2000/svg">
  <path fill-rule="evenodd" clip-rule="evenodd" d="M2 6.5C2 4 4 2 6.5 2h11C20 2 22 4 22 6.5v11C22 20 20 22 17.5 22h-11C4 22 2 20 2 17.5v-11ZM12 6a3 3 0 1 0 0 6 3 3 0 0 0 0-6Zm0 2a1 1 0 1 1 0 2 1 1 0 0 1 0-2Zm-3.5 6.8c-.4-.3-.5-.8-.2-1.2.3-.4.8-.5 1.2-.2.7.5 1.5.8 2.4.8s1.7-.3 2.4-.8c.4-.3.9-.2 1.2.2.3.4.2.9-.2 1.2-.7.5-1.4.8-2.1.9l2 2c.4.4.4 1 0 1.4-.2.2-.4.3-.7.3-.3 0-.5-.1-.7-.3L12 17.4l-1.9 1.9c-.2.2-.4.3-.7.3-.3 0-.5-.1-.7-.3-.4-.4-.4-1 0-1.4l2-2c-.7-.1-1.4-.4-2.1-.9Z" fill="currentColor"/>
</svg>
