<svg width="24" height="24" viewBox="0 0 24 24" fill="none" xmlns="http://www.w3.org/2000/svg">
<path d="M19.2213 15.2676L16.6813 14.9776C16.0713 14.9076 15.4713 15.1176 15.0413 15.5476L13.2013 17.3876C10.3713 15.9476 8.05125 13.6376 6.61125 10.7976L8.46125 8.94758C8.89125 8.51758 9.10125 7.91758 9.03125 7.30758L8.74125 4.78758C8.62125 3.77758 7.77125 3.01758 6.75125 3.01758H5.02125C3.89125 3.01758 2.95125 3.95758 3.02125 5.08758C3.55125 13.6276 10.3813 20.4476 18.9113 20.9776C20.0413 21.0476 20.9813 20.1076 20.9813 18.9776V17.2476C20.9913 16.2376 20.2313 15.3876 19.2213 15.2676Z" fill="currentColor"/>
</svg>
