<svg width="19" height="21" viewBox="0 0 19 21" fill="none" xmlns="http://www.w3.org/2000/svg">
<path d="M15.5491 14.5954C14.7613 14.5954 14.0564 14.9064 13.5173 15.3936L6.12634 11.0917C6.17817 10.8533 6.21963 10.6148 6.21963 10.3661C6.21963 10.1173 6.17817 9.87885 6.12634 9.64043L13.4344 5.37998C13.9942 5.89829 14.7302 6.21963 15.5491 6.21963C17.2698 6.21963 18.6589 4.83058 18.6589 3.10982C18.6589 1.38905 17.2698 0 15.5491 0C13.8283 0 12.4393 1.38905 12.4393 3.10982C12.4393 3.3586 12.4807 3.59702 12.5326 3.83544L5.22449 8.09589C4.66472 7.57759 3.92873 7.25624 3.10982 7.25624C1.38905 7.25624 0 8.64529 0 10.3661C0 12.0868 1.38905 13.4759 3.10982 13.4759C3.92873 13.4759 4.66472 13.1545 5.22449 12.6362L12.6051 16.9485C12.5533 17.1662 12.5222 17.3942 12.5222 17.6223C12.5222 19.2912 13.8801 20.6492 15.5491 20.6492C17.218 20.6492 18.576 19.2912 18.576 17.6223C18.576 15.9534 17.218 14.5954 15.5491 14.5954Z" fill="currentColor"/>
</svg>
