<svg width="32" height="32" viewBox="0 0 32 32" fill="none" xmlns="http://www.w3.org/2000/svg">
<rect width="32" height="32" rx="16" fill="white"/>
<path d="M8.25838 16.5379L11.6291 17.8023L12.9338 22.019C13.0173 22.289 13.3459 22.3888 13.564 22.2096L15.4429 20.6703C15.6398 20.509 15.9203 20.501 16.1262 20.6511L19.515 23.1238C19.7484 23.2942 20.0789 23.1657 20.1374 22.8824L22.6199 10.8816C22.6838 10.5721 22.3812 10.3139 22.088 10.4279L8.25443 15.791C7.91305 15.9233 7.91603 16.409 8.25838 16.5379ZM12.7235 17.1292L19.3112 13.0517C19.4296 12.9786 19.5514 13.1395 19.4497 13.2343L14.013 18.3131C13.8219 18.4919 13.6986 18.7311 13.6637 18.9908L13.4785 20.3701C13.454 20.5543 13.1966 20.5725 13.146 20.3943L12.4337 17.8792C12.3521 17.5923 12.471 17.2859 12.7235 17.1292Z" fill="#8AAD69"/>
</svg>
