<svg width="36" height="36" viewBox="0 0 36 36" fill="none" xmlns="http://www.w3.org/2000/svg">
<rect width="36" height="36" rx="18" fill="#F3F1F0"/>
<path d="M9.29068 18.6079L13.0827 20.0302L14.5505 24.774C14.6444 25.0778 15.0141 25.1901 15.2595 24.9885L17.3732 23.2568C17.5948 23.0753 17.9104 23.0663 18.1419 23.2352L21.9544 26.0169C22.2169 26.2087 22.5888 26.0641 22.6546 25.7454L25.4474 12.2445C25.5193 11.8963 25.1789 11.6058 24.8489 11.734L9.28624 17.7675C8.90218 17.9164 8.90553 18.4628 9.29068 18.6079ZM14.314 19.2731L21.7251 14.6859C21.8582 14.6037 21.9953 14.7847 21.8809 14.8913L15.7646 20.605C15.5496 20.8061 15.4109 21.0752 15.3717 21.3674L15.1633 22.9191C15.1357 23.1262 14.8461 23.1468 14.7892 22.9463L13.9879 20.1167C13.8962 19.794 14.0299 19.4493 14.314 19.2731Z" fill="#8AAD69"/>
</svg>
