<svg width="31" height="32" viewBox="0 0 31 32" fill="none" xmlns="http://www.w3.org/2000/svg">
<path d="M4.62478 15.5827L9.81971 17.5941L11.8305 24.3025C11.9591 24.7321 12.4656 24.8909 12.8017 24.6058L15.6975 22.1569C16.001 21.9003 16.4334 21.8875 16.7506 22.1264L21.9735 26.0601C22.3331 26.3313 22.8425 26.1268 22.9327 25.6761L26.7587 6.5839C26.8572 6.0915 26.3908 5.68071 25.9388 5.86205L4.6187 14.3943C4.09256 14.6048 4.09714 15.3775 4.62478 15.5827ZM11.5064 16.5233L21.6592 10.0364C21.8417 9.92013 22.0294 10.1761 21.8728 10.3269L13.4937 18.4068C13.1992 18.6912 13.0092 19.0718 12.9554 19.485L12.67 21.6793C12.6322 21.9722 12.2355 22.0013 12.1575 21.7178L11.0598 17.7164C10.9341 17.26 11.1173 16.7725 11.5064 16.5233Z" fill="currentColor"/>
</svg>
