<svg width="24" height="24" viewBox="0 0 24 24" fill="none" xmlns="http://www.w3.org/2000/svg">
  <path fill-rule="evenodd" clip-rule="evenodd" d="M2 6.5C2 4 4 2 6.5 2h11C20 2 22 4 22 6.5v11C22 20 20 22 17.5 22h-11C4 22 2 20 2 17.5v-11ZM7.5 8H5.8c-.3 0-.4.1-.4.3 0 .3.4 1.7 2 3.6 1.1 1.4 2.6 2.1 4 2.1h.8c.3 0 .4-.1.4-.4v-.8c0-.3.1-.4.3-.4.2 0 .5.2 1.2.9.8.8 1 1.1 1.5 1.1h1.7c.3 0 .4-.1.4-.3 0-.3-.4-.8-1-1.4l-.3-.3c-.5-.5-.6-.7-.5-.9l.1-.1c.4-.5 1.4-1.7 1.6-2.3.1-.2 0-.4-.3-.4H16c-.3 0-.4.1-.5.3 0 0-.6 1.3-1.3 2.1-.4.4-.5.3-.5.1V8.4c0-.3-.1-.4-.4-.4H11c-.2 0-.4.1-.4.3 0 .3.5.3.5 1.1v1.7c0 .4-.1.4-.3.4-.5 0-1.5-1.4-2.2-3C8.5 8.1 8.3 8 7.9 8H7.5Z" fill="currentColor"/>
</svg>
