<svg width="36" height="36" viewBox="0 0 36 36" fill="none" xmlns="http://www.w3.org/2000/svg">
<rect width="36" height="36" rx="18" fill="#F3F1F0"/>
<path d="M26.7666 22.652C26.7439 22.6031 26.7228 22.5626 26.7031 22.5301C26.3781 21.9447 25.757 21.2263 24.8403 20.3745L24.8209 20.355L24.8112 20.3454L24.8014 20.3356H24.7916C24.3755 19.939 24.112 19.6723 24.0017 19.5357C23.7998 19.2756 23.7546 19.0124 23.8649 18.7456C23.9429 18.5441 24.2357 18.1184 24.7427 17.4681C25.0094 17.1235 25.2206 16.8473 25.3766 16.6392C26.5015 15.1436 26.9892 14.1879 26.8396 13.7718L26.7815 13.6745C26.7424 13.616 26.6417 13.5624 26.4793 13.5136C26.3166 13.4648 26.1086 13.4567 25.8549 13.4892L23.0461 13.5086C23.0006 13.4925 22.9356 13.494 22.851 13.5136C22.7664 13.5331 22.7242 13.5429 22.7242 13.5429L22.6753 13.5673L22.6365 13.5967C22.6039 13.6161 22.5682 13.6502 22.5291 13.699C22.4903 13.7476 22.4578 13.8046 22.4318 13.8696C22.126 14.6564 21.7784 15.3879 21.3881 16.064C21.1475 16.4672 20.9266 16.8167 20.7248 17.1125C20.5233 17.4083 20.3542 17.6262 20.2178 17.7659C20.0812 17.9057 19.9578 18.0177 19.8471 18.1023C19.7365 18.187 19.6521 18.2227 19.5937 18.2096C19.5351 18.1966 19.4799 18.1836 19.4277 18.1706C19.3367 18.112 19.2635 18.0324 19.2084 17.9316C19.153 17.8309 19.1157 17.704 19.0962 17.5512C19.0767 17.3983 19.0653 17.2668 19.062 17.1562C19.059 17.0458 19.0604 16.8896 19.0669 16.688C19.0737 16.4864 19.0767 16.35 19.0767 16.2784C19.0767 16.0313 19.0816 15.7631 19.0912 15.4738C19.1011 15.1844 19.109 14.9552 19.1157 14.7863C19.1223 14.6172 19.1254 14.4384 19.1254 14.2498C19.1254 14.0612 19.1139 13.9134 19.0912 13.806C19.0688 13.6988 19.0344 13.5948 18.9891 13.4939C18.9435 13.3931 18.8767 13.3152 18.7892 13.2598C18.7014 13.2046 18.5923 13.1607 18.4624 13.1281C18.1178 13.0501 17.6789 13.0079 17.1457 13.0014C15.9364 12.9884 15.1593 13.0665 14.8147 13.2356C14.6782 13.307 14.5546 13.4046 14.4441 13.528C14.3271 13.6711 14.3107 13.7492 14.3952 13.7621C14.7854 13.8205 15.0616 13.9603 15.2242 14.1814L15.2828 14.2985C15.3284 14.383 15.3739 14.5327 15.4194 14.7472C15.4649 14.9617 15.4942 15.199 15.5071 15.459C15.5396 15.9337 15.5396 16.3401 15.5071 16.6781C15.4746 17.0163 15.4438 17.2796 15.4145 17.4682C15.3851 17.6567 15.3413 17.8095 15.2828 17.9265C15.2242 18.0436 15.1852 18.1151 15.1657 18.141C15.1462 18.167 15.1299 18.1834 15.117 18.1898C15.0325 18.2222 14.9446 18.2387 14.8536 18.2387C14.7625 18.2387 14.6521 18.1931 14.522 18.102C14.3921 18.011 14.2572 17.8859 14.1173 17.7265C13.9775 17.5672 13.8198 17.3445 13.6442 17.0584C13.4687 16.7724 13.2867 16.4343 13.0981 16.0442L12.9421 15.7613C12.8446 15.5793 12.7113 15.3142 12.5423 14.9665C12.3731 14.6185 12.2236 14.282 12.0936 13.9569C12.0417 13.8203 11.9636 13.7164 11.8596 13.6449L11.8108 13.6155C11.7783 13.5896 11.7262 13.562 11.6548 13.5326C11.5832 13.5033 11.5085 13.4822 11.4304 13.4693L8.7581 13.4887C8.48503 13.4887 8.29974 13.5505 8.20218 13.6741L8.16313 13.7326C8.14363 13.7651 8.13379 13.8171 8.13379 13.8887C8.13379 13.9602 8.15329 14.048 8.19234 14.1519C8.58245 15.0688 9.00669 15.953 9.46505 16.8048C9.92342 17.6566 10.3217 18.3427 10.6597 18.8625C10.9978 19.3827 11.3424 19.8737 11.6936 20.3352C12.0447 20.7969 12.2771 21.0928 12.3909 21.2228C12.5047 21.353 12.5941 21.4503 12.6591 21.5153L12.903 21.7494C13.0591 21.9054 13.2882 22.0924 13.5906 22.3101C13.893 22.5281 14.2278 22.7426 14.5951 22.9541C14.9626 23.1652 15.39 23.3375 15.8777 23.4708C16.3654 23.6042 16.84 23.6577 17.3017 23.6319H18.4233C18.6508 23.6122 18.8231 23.5407 18.9402 23.4172L18.979 23.3684C19.0051 23.3296 19.0296 23.2693 19.0521 23.1881C19.0749 23.1069 19.0863 23.0173 19.0863 22.9199C19.0796 22.6404 19.1009 22.3885 19.1495 22.1642C19.1982 21.9399 19.2536 21.7709 19.3155 21.657C19.3775 21.5433 19.4474 21.4473 19.5251 21.3695C19.6031 21.2915 19.6586 21.2442 19.6912 21.228C19.7236 21.2116 19.7495 21.2005 19.769 21.1939C19.925 21.1419 20.1087 21.1922 20.3202 21.3451C20.5315 21.4979 20.7298 21.6866 20.9152 21.9108C21.1005 22.1353 21.3232 22.3871 21.5832 22.6666C21.8434 22.9462 22.0709 23.1541 22.2659 23.2909L22.4609 23.4079C22.5911 23.486 22.7602 23.5575 22.9683 23.6225C23.176 23.6875 23.358 23.7037 23.5143 23.6713L26.011 23.6323C26.2579 23.6323 26.4501 23.5914 26.5864 23.5103C26.7229 23.429 26.8041 23.3395 26.8302 23.2421C26.8563 23.1446 26.8577 23.034 26.8352 22.9103C26.812 22.787 26.7893 22.7007 26.7666 22.652Z" fill="#8AAD69"/>
</svg>
