<svg width="36" height="36" viewBox="0 0 36 36" fill="none" xmlns="http://www.w3.org/2000/svg">
<rect width="36" height="36" rx="18" fill="#F3F1F0"/>
<path d="M14.7494 24.9042C14.6683 24.8466 14.5567 24.8622 14.4887 24.9349C13.5809 25.9069 11.2575 26.5887 11.1511 25.2621C11.1511 24.2227 10.9185 23.3468 10.6625 22.3824C10.3488 21.2013 10 19.8874 10 17.9779C10 13.4244 13.7201 10 18.1309 10C22.5417 10 26 13.5916 26 18.0221C26 22.4526 22.4317 25.9558 18.1727 25.9558C16.6617 25.9558 15.9284 25.7422 14.7494 24.9042ZM18.2546 13.9481C16.1614 13.8379 14.5279 15.296 14.1677 17.5781C13.8694 19.468 14.3983 21.7708 14.8507 21.8867C15.0425 21.9359 15.5043 21.5813 15.8402 21.2633C15.9034 21.2035 15.9988 21.1935 16.0729 21.2389C16.5966 21.5604 17.1894 21.802 17.8431 21.8364C19.992 21.9495 21.8964 20.2612 22.0089 18.1038C22.1215 15.9464 20.4036 14.0612 18.2546 13.9481Z" fill="#8AAD69"/>
</svg>
