<svg width="28" height="28" viewBox="0 0 28 28" fill="none" xmlns="http://www.w3.org/2000/svg">
<path d="M25.6663 3.50065V10.5007C25.6663 10.8101 25.5434 11.1068 25.3246 11.3256C25.1058 11.5444 24.8091 11.6673 24.4997 11.6673C24.1903 11.6673 23.8935 11.5444 23.6747 11.3256C23.4559 11.1068 23.333 10.8101 23.333 10.5007V6.31698L17.1578 12.4922C16.9378 12.7047 16.6431 12.8223 16.3372 12.8196C16.0313 12.8169 15.7387 12.6942 15.5224 12.4779C15.3061 12.2616 15.1834 11.969 15.1807 11.6631C15.1781 11.3572 15.2957 11.0625 15.5082 10.8425L21.6833 4.66732H17.4997C17.1903 4.66732 16.8935 4.5444 16.6747 4.32561C16.4559 4.10682 16.333 3.81007 16.333 3.50065C16.333 3.19123 16.4559 2.89449 16.6747 2.67569C16.8935 2.4569 17.1903 2.33398 17.4997 2.33398H24.4997C24.6527 2.33471 24.804 2.36523 24.9453 2.42382C25.1585 2.51193 25.3408 2.66125 25.4691 2.85292C25.5974 3.04459 25.6661 3.26999 25.6663 3.50065ZM10.8415 15.5092L4.66634 21.6843V17.5007C4.66634 17.1912 4.54343 16.8945 4.32463 16.6757C4.10584 16.4569 3.80909 16.334 3.49967 16.334C3.19026 16.334 2.89351 16.4569 2.67472 16.6757C2.45592 16.8945 2.33301 17.1912 2.33301 17.5007V24.5007C2.33374 24.6536 2.36425 24.805 2.42284 24.9463C2.54125 25.2321 2.76827 25.4591 3.05401 25.5775C3.19532 25.6361 3.3467 25.6666 3.49967 25.6673H10.4997C10.8091 25.6673 11.1058 25.5444 11.3246 25.3256C11.5434 25.1068 11.6663 24.8101 11.6663 24.5007C11.6663 24.1912 11.5434 23.8945 11.3246 23.6757C11.1058 23.4569 10.8091 23.334 10.4997 23.334H6.31601L12.4912 17.1588C12.7037 16.9388 12.8213 16.6441 12.8186 16.3382C12.816 16.0323 12.6933 15.7397 12.477 15.5234C12.2607 15.3071 11.968 15.1844 11.6621 15.1817C11.3562 15.179 11.0615 15.2966 10.8415 15.5092Z" fill="currentColor"/>
</svg>
